{
  "source": "C:\\Users\\Peter\\Desktop\\stuff\\MIUN\\quantitative_research\\video_compression\\videos\\BVI-HD\\BVI-HD_CDVL_videos\\ORIG\\TreeTrunk_1920x1080_50fps.mp4",
  "output": "C:\\Users\\Peter\\Desktop\\stuff\\MIUN\\quantitative_research\\video_compression\\compressed_videos\\BVI-HD\\hevc\\2.5\\TreeTrunk_1920x1080_50fps_hevc.mp4",
  "codec": "hevc",
  "ok": "Input #0, mov,mp4,m4a,3gp,3g2,mj2, from 'C:\\Users\\Peter\\Desktop\\stuff\\MIUN\\quantitative_research\\video_compression\\videos\\BVI-HD\\BVI-HD_CDVL_videos\\ORIG\\TreeTrunk_1920x1080_50fps.mp4':\n  Metadata:\n    major_brand     : isom\n    minor_version   : 512\n    compatible_brands: isomiso2avc1mp41\n    encoder         : Lavf54.28.101\n  Duration: 00:00:05.00, start: 0.000000, bitrate: 622415 kb/s\n  Stream #0:0[0x1](und): Video: h264 (High 4:4:4 Predictive) (avc1 / 0x31637661), yuv420p(progressive), 1920x1080, 622410 kb/s, 50 fps, 50 tbr, 50 tbn (default)\n    Metadata:\n      handler_name    : VideoHandler\n      vendor_id       : [0][0][0][0]\n[out#0/mp4 @ 0000021e06be7d80] Codec AVOption b:a (set bitrate (in bits/s)) has not been used for any stream. The most likely reason is either wrong type (e.g. a video option with no video streams) or that it is a private option of some decoder which was not actually used for any stream.\nStream mapping:\n  Stream #0:0 -> #0:0 (h264 (native) -> hevc (libx265))\nPress [q] to stop, [?] for help\n[libx265 @ 0000021e07840b40] Unknown option: \"aq-mode.\nx265 [info]: HEVC encoder version 4.1+190-8f11c33ac\nx265 [info]: build info [Windows][GCC 15.1.0][64 bit] 10bit\nx265 [info]: using cpu capabilities: MMX2 SSE2Fast LZCNT SSSE3 SSE4.2 AVX FMA3 BMI2 AVX2\nx265 [info]: Main 10 profile, Level-4.1 (Main tier)\nx265 [info]: Thread pool created using 12 threads\nx265 [info]: Slices                              : 1\nx265 [info]: frame threads / pool features       : 3 / wpp(17 rows)\nx265 [info]: Coding QT: max CU size, min CU size : 64 / 8\nx265 [info]: Residual QT: max TU size, max depth : 32 / 1 inter / 1 intra\nx265 [info]: ME / range / subpel / merge         : star / 57 / 3 / 3\nx265 [info]: Keyframe min / max / scenecut / bias  : 25 / 250 / 40 / 5.00 \nx265 [info]: Lookahead / bframes / badapt        : 25 / 4 / 2\nx265 [info]: b-pyramid / weightp / weightb       : 1 / 1 / 0\nx265 [info]: References / ref-limit  cu / depth  : 4 / on / on\nx265 [info]: AQ: mode / str / qg-size / cu-tree  : 2 / 1.0 / 32 / 1\nx265 [info]: Rate Control / qCompress            : ABR-2500 kbps / 0.60\nx265 [info]: VBV/HRD buffer / max-rate / init    : 2500 / 2500 / 0.750\nx265 [info]: tools: rect limit-modes rd=4 psy-rd=2.00 rdoq=2 psy-rdoq=1.00\nx265 [info]: tools: rskip mode=1 signhide tmvp strong-intra-smoothing lslices=4\nx265 [info]: tools: deblock sao dhdr10-info\nOutput #0, mp4, to 'C:\\Users\\Peter\\Desktop\\stuff\\MIUN\\quantitative_research\\video_compression\\compressed_videos\\BVI-HD\\hevc\\2.5\\TreeTrunk_1920x1080_50fps_hevc.mp4':\n  Metadata:\n    major_brand     : isom\n    minor_version   : 512\n    compatible_brands: isomiso2avc1mp41\n    encoder         : Lavf62.3.100\n  Stream #0:0(und): Video: hevc (hev1 / 0x31766568), yuv420p10le(tv, progressive), 1920x1080, q=2-31, 2500 kb/s, 50 fps, 12800 tbn (default)\n    Metadata:\n      encoder         : Lavc62.11.100 libx265\n      handler_name    : VideoHandler\n      vendor_id       : [0][0][0][0]\n    Side data:\n      cpb: bitrate max/min/avg: 2500000/0/2500000 buffer size: 2500000 vbv_delay: N/A\nframe=    0 fps=0.0 q=0.0 size=       0KiB time=N/A bitrate=N/A speed=N/A elapsed=0:00:01.21    \nframe=    0 fps=0.0 q=0.0 size=       0KiB time=N/A bitrate=N/A speed=N/A elapsed=0:00:01.74    \nframe=    0 fps=0.0 q=0.0 size=       0KiB time=N/A bitrate=N/A speed=N/A elapsed=0:00:02.27    \nframe=    0 fps=0.0 q=0.0 size=       0KiB time=N/A bitrate=N/A speed=N/A elapsed=0:00:02.84    \nframe=    0 fps=0.0 q=0.0 size=       0KiB time=N/A bitrate=N/A speed=N/A elapsed=0:00:03.36    \nframe=    0 fps=0.0 q=0.0 size=       0KiB time=N/A bitrate=N/A speed=N/A elapsed=0:00:03.88    \nframe=    0 fps=0.0 q=0.0 size=       0KiB time=N/A bitrate=N/A speed=N/A elapsed=0:00:04.41    \nframe=    0 fps=0.0 q=0.0 size=       0KiB time=N/A bitrate=N/A speed=N/A elapsed=0:00:04.95    \nframe=    0 fps=0.0 q=0.0 size=       0KiB time=N/A bitrate=N/A speed=N/A elapsed=0:00:05.47    \nframe=    0 fps=0.0 q=0.0 size=       0KiB time=N/A bitrate=N/A speed=N/A elapsed=0:00:05.98    \nframe=    0 fps=0.0 q=0.0 size=       0KiB time=N/A bitrate=N/A speed=N/A elapsed=0:00:06.53    \nframe=    0 fps=0.0 q=0.0 size=       0KiB time=N/A bitrate=N/A speed=N/A elapsed=0:00:07.07    \nframe=    0 fps=0.0 q=0.0 size=       0KiB time=N/A bitrate=N/A speed=N/A elapsed=0:00:07.59    \nframe=    0 fps=0.0 q=0.0 size=       0KiB time=N/A bitrate=N/A speed=N/A elapsed=0:00:08.15    \nframe=    1 fps=0.1 q=39.1 size=       0KiB time=-00:00:00.02 bitrate=N/A speed=N/A elapsed=0:00:08.75    \nframe=    1 fps=0.1 q=39.1 size=       0KiB time=-00:00:00.02 bitrate=N/A speed=N/A elapsed=0:00:09.27    \nframe=    1 fps=0.1 q=39.1 size=       0KiB time=-00:00:00.02 bitrate=N/A speed=N/A elapsed=0:00:09.79    \nframe=    1 fps=0.1 q=39.1 size=       0KiB time=-00:00:00.02 bitrate=N/A speed=N/A elapsed=0:00:10.31    \nframe=    3 fps=0.3 q=51.0 size=       0KiB time=00:00:00.02 bitrate=  17.6kbits/s speed=0.00185x elapsed=0:00:10.83    \nframe=    3 fps=0.3 q=51.0 size=       0KiB time=00:00:00.02 bitrate=  17.6kbits/s speed=0.00176x elapsed=0:00:11.35    \nframe=    3 fps=0.3 q=51.0 size=       0KiB time=00:00:00.02 bitrate=  17.6kbits/s speed=0.00168x elapsed=0:00:11.87    \nframe=    5 fps=0.4 q=51.0 size=       0KiB time=00:00:00.06 bitrate=   5.9kbits/s speed=0.00484x elapsed=0:00:12.39    \nframe=    5 fps=0.4 q=51.0 size=       0KiB time=00:00:00.06 bitrate=   5.9kbits/s speed=0.00464x elapsed=0:00:12.93    \nframe=    6 fps=0.4 q=50.0 size=       0KiB time=00:00:00.08 bitrate=   4.4kbits/s speed=0.00593x elapsed=0:00:13.48    \nframe=    8 fps=0.6 q=44.9 size=       0KiB time=00:00:00.12 bitrate=   2.9kbits/s speed=0.00854x elapsed=0:00:14.05    \nframe=    9 fps=0.6 q=43.9 size=       0KiB time=00:00:00.14 bitrate=   2.5kbits/s speed=0.0096x elapsed=0:00:14.57    \nframe=    9 fps=0.6 q=43.9 size=       0KiB time=00:00:00.14 bitrate=   2.5kbits/s speed=0.00926x elapsed=0:00:15.11    \nframe=   10 fps=0.6 q=44.0 size=       0KiB time=00:00:00.16 bitrate=   2.2kbits/s speed=0.0102x elapsed=0:00:15.62    \nframe=   10 fps=0.6 q=44.0 size=       0KiB time=00:00:00.16 bitrate=   2.2kbits/s speed=0.0099x elapsed=0:00:16.15    \nframe=   11 fps=0.7 q=44.0 size=       0KiB time=00:00:00.18 bitrate=   2.0kbits/s speed=0.0108x elapsed=0:00:16.68    \nframe=   12 fps=0.7 q=38.5 size=       0KiB time=00:00:00.20 bitrate=   1.8kbits/s speed=0.0116x elapsed=0:00:17.23    \nframe=   14 fps=0.8 q=42.7 size=       0KiB time=00:00:00.24 bitrate=   1.5kbits/s speed=0.0135x elapsed=0:00:17.74    \nframe=   14 fps=0.8 q=42.7 size=       0KiB time=00:00:00.24 bitrate=   1.5kbits/s speed=0.0131x elapsed=0:00:18.26    \nframe=   15 fps=0.8 q=44.0 size=       0KiB time=00:00:00.26 bitrate=   1.4kbits/s speed=0.0138x elapsed=0:00:18.78    \nframe=   16 fps=0.8 q=44.0 size=       0KiB time=00:00:00.28 bitrate=   1.3kbits/s speed=0.0145x elapsed=0:00:19.30    \nframe=   17 fps=0.9 q=36.6 size=       0KiB time=00:00:00.30 bitrate=   1.2kbits/s speed=0.0151x elapsed=0:00:19.84    \nframe=   17 fps=0.8 q=36.6 size=       0KiB time=00:00:00.30 bitrate=   1.2kbits/s speed=0.0147x elapsed=0:00:20.37    \nframe=   19 fps=0.9 q=46.0 size=       0KiB time=00:00:00.34 bitrate=   1.0kbits/s speed=0.0163x elapsed=0:00:20.89    \nframe=   21 fps=1.0 q=45.0 size=       0KiB time=00:00:00.38 bitrate=   0.9kbits/s speed=0.0177x elapsed=0:00:21.42    \nframe=   22 fps=1.0 q=38.8 size=       0KiB time=00:00:00.40 bitrate=   0.9kbits/s speed=0.0182x elapsed=0:00:21.93    \nframe=   24 fps=1.1 q=45.0 size=       0KiB time=00:00:00.44 bitrate=   0.8kbits/s speed=0.0196x elapsed=0:00:22.46    \nframe=   25 fps=1.1 q=42.9 size=       0KiB time=00:00:00.46 bitrate=   0.8kbits/s speed=0.02x elapsed=0:00:23.05    \nframe=   25 fps=1.1 q=42.9 size=       0KiB time=00:00:00.46 bitrate=   0.8kbits/s speed=0.0194x elapsed=0:00:23.65    \nframe=   26 fps=1.1 q=43.0 size=       0KiB time=00:00:00.48 bitrate=   0.7kbits/s speed=0.0199x elapsed=0:00:24.17    \nframe=   26 fps=1.1 q=43.0 size=       0KiB time=00:00:00.48 bitrate=   0.7kbits/s speed=0.0194x elapsed=0:00:24.69    \nframe=   27 fps=1.1 q=35.7 size=       0KiB time=00:00:00.50 bitrate=   0.7kbits/s speed=0.0198x elapsed=0:00:25.25    \nframe=   27 fps=1.0 q=35.7 size=       0KiB time=00:00:00.50 bitrate=   0.7kbits/s speed=0.0193x elapsed=0:00:25.91    \nframe=   27 fps=1.0 q=35.7 size=       0KiB time=00:00:00.50 bitrate=   0.7kbits/s speed=0.0189x elapsed=0:00:26.49    \nframe=   27 fps=1.0 q=35.7 size=       0KiB time=00:00:00.50 bitrate=   0.7kbits/s speed=0.0184x elapsed=0:00:27.16    \nframe=   27 fps=1.0 q=35.7 size=       0KiB time=00:00:00.50 bitrate=   0.7kbits/s speed=0.018x elapsed=0:00:27.71    \nframe=   28 fps=1.0 q=43.0 size=       0KiB time=00:00:00.52 bitrate=   0.7kbits/s speed=0.0184x elapsed=0:00:28.21    \nframe=   28 fps=1.0 q=43.0 size=       0KiB time=00:00:00.52 bitrate=   0.7kbits/s speed=0.0181x elapsed=0:00:28.75    \nframe=   29 fps=1.0 q=43.0 size=       0KiB time=00:00:00.54 bitrate=   0.7kbits/s speed=0.0184x elapsed=0:00:29.29    \nframe=   30 fps=1.0 q=43.0 size=       0KiB time=00:00:00.56 bitrate=   0.6kbits/s speed=0.0187x elapsed=0:00:29.87    \nframe=   30 fps=1.0 q=43.0 size=       0KiB time=00:00:00.56 bitrate=   0.6kbits/s speed=0.0184x elapsed=0:00:30.51    \nframe=   31 fps=1.0 q=43.0 size=       0KiB time=00:00:00.58 bitrate=   0.6kbits/s speed=0.0187x elapsed=0:00:31.04    \nframe=   31 fps=1.0 q=43.0 size=       0KiB time=00:00:00.58 bitrate=   0.6kbits/s speed=0.0184x elapsed=0:00:31.57    \nframe=   31 fps=1.0 q=43.0 size=       0KiB time=00:00:00.58 bitrate=   0.6kbits/s speed=0.018x elapsed=0:00:32.13    \nframe=   32 fps=1.0 q=35.2 size=       0KiB time=00:00:00.60 bitrate=   0.6kbits/s speed=0.0183x elapsed=0:00:32.82    \nframe=   32 fps=1.0 q=35.2 size=       0KiB time=00:00:00.60 bitrate=   0.6kbits/s speed=0.0179x elapsed=0:00:33.47    \nframe=   33 fps=1.0 q=42.0 size=       0KiB time=00:00:00.62 bitrate=   0.6kbits/s speed=0.0182x elapsed=0:00:34.05    \nframe=   33 fps=1.0 q=42.0 size=       0KiB time=00:00:00.62 bitrate=   0.6kbits/s speed=0.0179x elapsed=0:00:34.62    \nframe=   34 fps=1.0 q=43.0 size=       0KiB time=00:00:00.64 bitrate=   0.6kbits/s speed=0.0181x elapsed=0:00:35.29    \nframe=   34 fps=0.9 q=43.0 size=       0KiB time=00:00:00.64 bitrate=   0.6kbits/s speed=0.0179x elapsed=0:00:35.81    \nframe=   34 fps=0.9 q=43.0 size=       0KiB time=00:00:00.64 bitrate=   0.6kbits/s speed=0.0176x elapsed=0:00:36.35    \nframe=   34 fps=0.9 q=43.0 size=       0KiB time=00:00:00.64 bitrate=   0.6kbits/s speed=0.0174x elapsed=0:00:36.85    \nframe=   35 fps=0.9 q=34.9 size=       0KiB time=00:00:00.66 bitrate=   0.5kbits/s speed=0.0176x elapsed=0:00:37.44    \nframe=   35 fps=0.9 q=34.9 size=       0KiB time=00:00:00.66 bitrate=   0.5kbits/s speed=0.0174x elapsed=0:00:37.97    \nframe=   35 fps=0.9 q=34.9 size=       0KiB time=00:00:00.66 bitrate=   0.5kbits/s speed=0.0171x elapsed=0:00:38.49    \nframe=   35 fps=0.9 q=34.9 size=       0KiB time=00:00:00.66 bitrate=   0.5kbits/s speed=0.0169x elapsed=0:00:39.02    \nframe=   36 fps=0.9 q=42.0 size=       0KiB time=00:00:00.68 bitrate=   0.5kbits/s speed=0.0172x elapsed=0:00:39.54    \nframe=   36 fps=0.9 q=42.0 size=       0KiB time=00:00:00.68 bitrate=   0.5kbits/s speed=0.017x elapsed=0:00:40.11    \nframe=   36 fps=0.9 q=42.0 size=       0KiB time=00:00:00.68 bitrate=   0.5kbits/s speed=0.0167x elapsed=0:00:40.67    \nframe=   37 fps=0.9 q=42.0 size=       0KiB time=00:00:00.70 bitrate=   0.5kbits/s speed=0.017x elapsed=0:00:41.20    \nframe=   37 fps=0.9 q=42.0 size=       0KiB time=00:00:00.70 bitrate=   0.5kbits/s speed=0.0168x elapsed=0:00:41.73    \nframe=   37 fps=0.9 q=42.0 size=       0KiB time=00:00:00.70 bitrate=   0.5kbits/s speed=0.0166x elapsed=0:00:42.26    \nframe=   37 fps=0.9 q=42.0 size=       0KiB time=00:00:00.70 bitrate=   0.5kbits/s speed=0.0164x elapsed=0:00:42.78    \nframe=   38 fps=0.9 q=42.0 size=       0KiB time=00:00:00.72 bitrate=   0.5kbits/s speed=0.0166x elapsed=0:00:43.40    \nframe=   38 fps=0.9 q=42.0 size=       0KiB time=00:00:00.72 bitrate=   0.5kbits/s speed=0.0164x elapsed=0:00:43.92    \nframe=   38 fps=0.9 q=42.0 size=       0KiB time=00:00:00.72 bitrate=   0.5kbits/s speed=0.0162x elapsed=0:00:44.52    \nframe=   38 fps=0.8 q=42.0 size=       0KiB time=00:00:00.72 bitrate=   0.5kbits/s speed=0.016x elapsed=0:00:45.04    \nframe=   38 fps=0.8 q=42.0 size=       0KiB time=00:00:00.72 bitrate=   0.5kbits/s speed=0.0158x elapsed=0:00:45.56    \nframe=   39 fps=0.8 q=41.0 size=       0KiB time=00:00:00.74 bitrate=   0.5kbits/s speed=0.0161x elapsed=0:00:46.10    \nframe=   39 fps=0.8 q=41.0 size=       0KiB time=00:00:00.74 bitrate=   0.5kbits/s speed=0.0159x elapsed=0:00:46.64    \nframe=   39 fps=0.8 q=41.0 size=       0KiB time=00:00:00.74 bitrate=   0.5kbits/s speed=0.0157x elapsed=0:00:47.17    \nframe=   39 fps=0.8 q=41.0 size=       0KiB time=00:00:00.74 bitrate=   0.5kbits/s speed=0.0155x elapsed=0:00:47.74    \nframe=   40 fps=0.8 q=34.0 size=       0KiB time=00:00:00.76 bitrate=   0.5kbits/s speed=0.0157x elapsed=0:00:48.26    \nframe=   41 fps=0.8 q=41.9 size=       0KiB time=00:00:00.78 bitrate=   0.5kbits/s speed=0.016x elapsed=0:00:48.82    \nframe=   41 fps=0.8 q=41.9 size=       0KiB time=00:00:00.78 bitrate=   0.5kbits/s speed=0.0158x elapsed=0:00:49.32    \nframe=   41 fps=0.8 q=41.9 size=       0KiB time=00:00:00.78 bitrate=   0.5kbits/s speed=0.0156x elapsed=0:00:49.92    \nframe=   41 fps=0.8 q=41.9 size=       0KiB time=00:00:00.78 bitrate=   0.5kbits/s speed=0.0155x elapsed=0:00:50.44    \nframe=   42 fps=0.8 q=42.0 size=       0KiB time=00:00:00.80 bitrate=   0.4kbits/s speed=0.0157x elapsed=0:00:50.97    \nframe=   42 fps=0.8 q=42.0 size=       0KiB time=00:00:00.80 bitrate=   0.4kbits/s speed=0.0155x elapsed=0:00:51.49    \nframe=   42 fps=0.8 q=42.0 size=       0KiB time=00:00:00.80 bitrate=   0.4kbits/s speed=0.0154x elapsed=0:00:52.01    \nframe=   42 fps=0.8 q=42.0 size=       0KiB time=00:00:00.80 bitrate=   0.4kbits/s speed=0.0152x elapsed=0:00:52.53    \nframe=   43 fps=0.8 q=41.9 size=       0KiB time=00:00:00.82 bitrate=   0.4kbits/s speed=0.0155x elapsed=0:00:53.07    \nframe=   43 fps=0.8 q=41.9 size=       0KiB time=00:00:00.82 bitrate=   0.4kbits/s speed=0.0153x elapsed=0:00:53.59    \nframe=   43 fps=0.8 q=41.9 size=       0KiB time=00:00:00.82 bitrate=   0.4kbits/s speed=0.0151x elapsed=0:00:54.17    \nframe=   43 fps=0.8 q=41.9 size=       0KiB time=00:00:00.82 bitrate=   0.4kbits/s speed=0.015x elapsed=0:00:54.70    \nframe=   43 fps=0.8 q=41.9 size=       0KiB time=00:00:00.82 bitrate=   0.4kbits/s speed=0.0148x elapsed=0:00:55.23    \nframe=   43 fps=0.8 q=41.9 size=       0KiB time=00:00:00.82 bitrate=   0.4kbits/s speed=0.0147x elapsed=0:00:55.77    \nframe=   44 fps=0.8 q=41.0 size=       0KiB time=00:00:00.84 bitrate=   0.4kbits/s speed=0.0149x elapsed=0:00:56.30    \nframe=   44 fps=0.8 q=41.0 size=       0KiB time=00:00:00.84 bitrate=   0.4kbits/s speed=0.0148x elapsed=0:00:56.85    \nframe=   45 fps=0.8 q=33.7 size=       0KiB time=00:00:00.86 bitrate=   0.4kbits/s speed=0.015x elapsed=0:00:57.35    \nframe=   45 fps=0.8 q=33.7 size=       0KiB time=00:00:00.86 bitrate=   0.4kbits/s speed=0.0149x elapsed=0:00:57.88    \nframe=   45 fps=0.8 q=33.7 size=       0KiB time=00:00:00.86 bitrate=   0.4kbits/s speed=0.0147x elapsed=0:00:58.38    \nframe=   45 fps=0.8 q=33.7 size=       0KiB time=00:00:00.86 bitrate=   0.4kbits/s speed=0.0146x elapsed=0:00:58.90    \nframe=   45 fps=0.8 q=33.7 size=       0KiB time=00:00:00.86 bitrate=   0.4kbits/s speed=0.0145x elapsed=0:00:59.43    \nframe=   45 fps=0.8 q=33.7 size=       0KiB time=00:00:00.86 bitrate=   0.4kbits/s speed=0.0143x elapsed=0:00:59.93    \nframe=   45 fps=0.7 q=33.7 size=       0KiB time=00:00:00.86 bitrate=   0.4kbits/s speed=0.0142x elapsed=0:01:00.45    \nframe=   46 fps=0.8 q=40.8 size=       0KiB time=00:00:00.88 bitrate=   0.4kbits/s speed=0.0144x elapsed=0:01:00.99    \nframe=   46 fps=0.7 q=40.8 size=       0KiB time=00:00:00.88 bitrate=   0.4kbits/s speed=0.0143x elapsed=0:01:01.51    \nframe=   46 fps=0.7 q=40.8 size=       0KiB time=00:00:00.88 bitrate=   0.4kbits/s speed=0.0142x elapsed=0:01:02.03    \nframe=   46 fps=0.7 q=40.8 size=       0KiB time=00:00:00.88 bitrate=   0.4kbits/s speed=0.0141x elapsed=0:01:02.55    \nframe=   47 fps=0.7 q=42.0 size=       0KiB time=00:00:00.90 bitrate=   0.4kbits/s speed=0.0143x elapsed=0:01:03.07    \nframe=   47 fps=0.7 q=42.0 size=       0KiB time=00:00:00.90 bitrate=   0.4kbits/s speed=0.0141x elapsed=0:01:03.64    \nframe=   49 fps=0.8 q=33.3 size=       0KiB time=00:00:00.94 bitrate=   0.4kbits/s speed=0.0146x elapsed=0:01:04.19    \nframe=   51 fps=0.8 q=41.0 size=     256KiB time=00:00:00.98 bitrate=2140.3kbits/s speed=0.0151x elapsed=0:01:04.70    \nframe=   51 fps=0.8 q=41.0 size=     256KiB time=00:00:00.98 bitrate=2140.3kbits/s speed=0.015x elapsed=0:01:05.24    \nframe=   52 fps=0.8 q=41.0 size=     256KiB time=00:00:01.00 bitrate=2097.5kbits/s speed=0.0152x elapsed=0:01:05.80    \nframe=   52 fps=0.8 q=41.0 size=     256KiB time=00:00:01.00 bitrate=2097.5kbits/s speed=0.0151x elapsed=0:01:06.35    \nframe=   53 fps=0.8 q=40.0 size=     256KiB time=00:00:01.02 bitrate=2056.4kbits/s speed=0.0152x elapsed=0:01:06.88    \nframe=   54 fps=0.8 q=32.6 size=     256KiB time=00:00:01.04 bitrate=2016.8kbits/s speed=0.0154x elapsed=0:01:07.45    \nframe=   54 fps=0.8 q=32.6 size=     256KiB time=00:00:01.04 bitrate=2016.8kbits/s speed=0.0153x elapsed=0:01:07.98    \nframe=   54 fps=0.8 q=32.6 size=     256KiB time=00:00:01.04 bitrate=2016.8kbits/s speed=0.0152x elapsed=0:01:08.53    \nframe=   54 fps=0.8 q=32.6 size=     256KiB time=00:00:01.04 bitrate=2016.8kbits/s speed=0.0151x elapsed=0:01:09.10    \nframe=   54 fps=0.8 q=32.6 size=     256KiB time=00:00:01.04 bitrate=2016.8kbits/s speed=0.0149x elapsed=0:01:09.67    \nframe=   54 fps=0.8 q=32.6 size=     256KiB time=00:00:01.04 bitrate=2016.8kbits/s speed=0.0148x elapsed=0:01:10.20    \nframe=   54 fps=0.8 q=32.6 size=     256KiB time=00:00:01.04 bitrate=2016.8kbits/s speed=0.0147x elapsed=0:01:10.76    \nframe=   54 fps=0.8 q=32.6 size=     256KiB time=00:00:01.04 bitrate=2016.8kbits/s speed=0.0146x elapsed=0:01:11.28    \nframe=   54 fps=0.8 q=32.6 size=     256KiB time=00:00:01.04 bitrate=2016.8kbits/s speed=0.0145x elapsed=0:01:11.80    \nframe=   54 fps=0.7 q=32.6 size=     256KiB time=00:00:01.04 bitrate=2016.8kbits/s speed=0.0143x elapsed=0:01:12.48    \nframe=   54 fps=0.7 q=32.6 size=     256KiB time=00:00:01.04 bitrate=2016.8kbits/s speed=0.0142x elapsed=0:01:13.01    \nframe=   55 fps=0.7 q=39.8 size=     256KiB time=00:00:01.06 bitrate=1978.8kbits/s speed=0.0144x elapsed=0:01:13.53    \nframe=   55 fps=0.7 q=39.8 size=     256KiB time=00:00:01.06 bitrate=1978.8kbits/s speed=0.0143x elapsed=0:01:14.04    \nframe=   56 fps=0.8 q=41.0 size=     256KiB time=00:00:01.08 bitrate=1942.1kbits/s speed=0.0145x elapsed=0:01:14.56    \nframe=   56 fps=0.7 q=41.0 size=     256KiB time=00:00:01.08 bitrate=1942.1kbits/s speed=0.0144x elapsed=0:01:15.10    \nframe=   56 fps=0.7 q=41.0 size=     256KiB time=00:00:01.08 bitrate=1942.1kbits/s speed=0.0143x elapsed=0:01:15.60    \nframe=   56 fps=0.7 q=41.0 size=     256KiB time=00:00:01.08 bitrate=1942.1kbits/s speed=0.0142x elapsed=0:01:16.12    \nframe=   56 fps=0.7 q=41.0 size=     256KiB time=00:00:01.08 bitrate=1942.1kbits/s speed=0.0141x elapsed=0:01:16.65    \nframe=   58 fps=0.8 q=41.0 size=     256KiB time=00:00:01.12 bitrate=1872.8kbits/s speed=0.0145x elapsed=0:01:17.18    \nframe=   58 fps=0.7 q=41.0 size=     256KiB time=00:00:01.12 bitrate=1872.8kbits/s speed=0.0144x elapsed=0:01:17.71    \nframe=   58 fps=0.7 q=41.0 size=     256KiB time=00:00:01.12 bitrate=1872.8kbits/s speed=0.0143x elapsed=0:01:18.23    \nframe=   58 fps=0.7 q=41.0 size=     256KiB time=00:00:01.12 bitrate=1872.8kbits/s speed=0.0142x elapsed=0:01:18.77    \nframe=   58 fps=0.7 q=41.0 size=     256KiB time=00:00:01.12 bitrate=1872.8kbits/s speed=0.0141x elapsed=0:01:19.28    \nframe=   59 fps=0.7 q=32.4 size=     256KiB time=00:00:01.14 bitrate=1839.9kbits/s speed=0.0143x elapsed=0:01:19.82    \nframe=   59 fps=0.7 q=32.4 size=     256KiB time=00:00:01.14 bitrate=1839.9kbits/s speed=0.0142x elapsed=0:01:20.34    \nframe=   59 fps=0.7 q=32.4 size=     256KiB time=00:00:01.14 bitrate=1839.9kbits/s speed=0.0141x elapsed=0:01:20.89    \nframe=   59 fps=0.7 q=32.4 size=     256KiB time=00:00:01.14 bitrate=1839.9kbits/s speed=0.014x elapsed=0:01:21.43    \nframe=   59 fps=0.7 q=32.4 size=     256KiB time=00:00:01.14 bitrate=1839.9kbits/s speed=0.0139x elapsed=0:01:21.97    \nframe=   59 fps=0.7 q=32.4 size=     256KiB time=00:00:01.14 bitrate=1839.9kbits/s speed=0.0138x elapsed=0:01:22.55    \nframe=   61 fps=0.7 q=41.0 size=     256KiB time=00:00:01.18 bitrate=1777.5kbits/s speed=0.0142x elapsed=0:01:23.07    \nframe=   61 fps=0.7 q=41.0 size=     256KiB time=00:00:01.18 bitrate=1777.5kbits/s speed=0.0141x elapsed=0:01:23.59    \nframe=   61 fps=0.7 q=41.0 size=     256KiB time=00:00:01.18 bitrate=1777.5kbits/s speed=0.014x elapsed=0:01:24.13    \nframe=   62 fps=0.7 q=39.9 size=     256KiB time=00:00:01.20 bitrate=1747.9kbits/s speed=0.0142x elapsed=0:01:24.65    \nframe=   62 fps=0.7 q=39.9 size=     256KiB time=00:00:01.20 bitrate=1747.9kbits/s speed=0.0141x elapsed=0:01:25.17    \nframe=   62 fps=0.7 q=39.9 size=     256KiB time=00:00:01.20 bitrate=1747.9kbits/s speed=0.014x elapsed=0:01:25.75    \nframe=   63 fps=0.7 q=40.0 size=     256KiB time=00:00:01.22 bitrate=1719.3kbits/s speed=0.0141x elapsed=0:01:26.30    \nframe=   63 fps=0.7 q=40.0 size=     256KiB time=00:00:01.22 bitrate=1719.3kbits/s speed=0.014x elapsed=0:01:26.94    \nframe=   64 fps=0.7 q=31.9 size=     256KiB time=00:00:01.24 bitrate=1691.5kbits/s speed=0.0142x elapsed=0:01:27.59    \nframe=   65 fps=0.7 q=39.0 size=     256KiB time=00:00:01.26 bitrate=1664.7kbits/s speed=0.0143x elapsed=0:01:28.17    \nframe=   65 fps=0.7 q=39.0 size=     256KiB time=00:00:01.26 bitrate=1664.7kbits/s speed=0.0142x elapsed=0:01:28.71    \nframe=   66 fps=0.7 q=40.0 size=     256KiB time=00:00:01.28 bitrate=1638.7kbits/s speed=0.0143x elapsed=0:01:29.23    \nframe=   66 fps=0.7 q=40.0 size=     256KiB time=00:00:01.28 bitrate=1638.7kbits/s speed=0.0143x elapsed=0:01:29.75    \nframe=   66 fps=0.7 q=40.0 size=     256KiB time=00:00:01.28 bitrate=1638.7kbits/s speed=0.0142x elapsed=0:01:30.26    \nframe=   66 fps=0.7 q=40.0 size=     256KiB time=00:00:01.28 bitrate=1638.7kbits/s speed=0.0141x elapsed=0:01:30.78    \nframe=   66 fps=0.7 q=40.0 size=     256KiB time=00:00:01.28 bitrate=1638.7kbits/s speed=0.014x elapsed=0:01:31.30    \nframe=   67 fps=0.7 q=39.0 size=     256KiB time=00:00:01.30 bitrate=1613.5kbits/s speed=0.0142x elapsed=0:01:31.83    \nframe=   67 fps=0.7 q=39.0 size=     256KiB time=00:00:01.30 bitrate=1613.5kbits/s speed=0.0141x elapsed=0:01:32.35    \nframe=   67 fps=0.7 q=39.0 size=     256KiB time=00:00:01.30 bitrate=1613.5kbits/s speed=0.014x elapsed=0:01:32.88    \nframe=   68 fps=0.7 q=39.0 size=     256KiB time=00:00:01.32 bitrate=1589.0kbits/s speed=0.0141x elapsed=0:01:33.42    \nframe=   68 fps=0.7 q=39.0 size=     256KiB time=00:00:01.32 bitrate=1589.0kbits/s speed=0.014x elapsed=0:01:34.05    \nframe=   68 fps=0.7 q=39.0 size=     256KiB time=00:00:01.32 bitrate=1589.0kbits/s speed=0.014x elapsed=0:01:34.58    \nframe=   69 fps=0.7 q=31.3 size=     256KiB time=00:00:01.34 bitrate=1565.3kbits/s speed=0.0141x elapsed=0:01:35.15    \nframe=   69 fps=0.7 q=31.3 size=     256KiB time=00:00:01.34 bitrate=1565.3kbits/s speed=0.014x elapsed=0:01:35.67    \nframe=   69 fps=0.7 q=31.3 size=     256KiB time=00:00:01.34 bitrate=1565.3kbits/s speed=0.0139x elapsed=0:01:36.30    \nframe=   69 fps=0.7 q=31.3 size=     256KiB time=00:00:01.34 bitrate=1565.3kbits/s speed=0.0138x elapsed=0:01:36.87    \nframe=   70 fps=0.7 q=38.0 size=     256KiB time=00:00:01.36 bitrate=1542.3kbits/s speed=0.014x elapsed=0:01:37.39    \nframe=   71 fps=0.7 q=39.0 size=     256KiB time=00:00:01.38 bitrate=1519.9kbits/s speed=0.0141x elapsed=0:01:37.91    \nframe=   71 fps=0.7 q=39.0 size=     256KiB time=00:00:01.38 bitrate=1519.9kbits/s speed=0.014x elapsed=0:01:38.43    \nframe=   71 fps=0.7 q=39.0 size=     256KiB time=00:00:01.38 bitrate=1519.9kbits/s speed=0.0139x elapsed=0:01:38.97    \nframe=   71 fps=0.7 q=39.0 size=     256KiB time=00:00:01.38 bitrate=1519.9kbits/s speed=0.0139x elapsed=0:01:39.51    \nframe=   71 fps=0.7 q=39.0 size=     256KiB time=00:00:01.38 bitrate=1519.9kbits/s speed=0.0138x elapsed=0:01:40.11    \nframe=   72 fps=0.7 q=39.0 size=     256KiB time=00:00:01.40 bitrate=1498.2kbits/s speed=0.0139x elapsed=0:01:40.62    \nframe=   72 fps=0.7 q=39.0 size=     256KiB time=00:00:01.40 bitrate=1498.2kbits/s speed=0.0138x elapsed=0:01:41.14    \nframe=   73 fps=0.7 q=39.0 size=     256KiB time=00:00:01.42 bitrate=1477.1kbits/s speed=0.014x elapsed=0:01:41.68    \nframe=   73 fps=0.7 q=39.0 size=     256KiB time=00:00:01.42 bitrate=1477.1kbits/s speed=0.0139x elapsed=0:01:42.20    \nframe=   74 fps=0.7 q=32.0 size=     256KiB time=00:00:01.44 bitrate=1456.6kbits/s speed=0.014x elapsed=0:01:42.72    \nframe=   75 fps=0.7 q=37.8 size=     256KiB time=00:00:01.46 bitrate=1436.6kbits/s speed=0.0141x elapsed=0:01:43.22    \nframe=   75 fps=0.7 q=37.8 size=     256KiB time=00:00:01.46 bitrate=1436.6kbits/s speed=0.0141x elapsed=0:01:43.75    \nframe=   75 fps=0.7 q=37.8 size=     256KiB time=00:00:01.46 bitrate=1436.6kbits/s speed=0.014x elapsed=0:01:44.30    \nframe=   75 fps=0.7 q=37.8 size=     256KiB time=00:00:01.46 bitrate=1436.6kbits/s speed=0.0139x elapsed=0:01:44.89    \nframe=   76 fps=0.7 q=39.0 size=     256KiB time=00:00:01.48 bitrate=1417.2kbits/s speed=0.014x elapsed=0:01:45.42    \nframe=   76 fps=0.7 q=39.0 size=     256KiB time=00:00:01.48 bitrate=1417.2kbits/s speed=0.014x elapsed=0:01:45.96    \nframe=   76 fps=0.7 q=39.0 size=     256KiB time=00:00:01.48 bitrate=1417.2kbits/s speed=0.0139x elapsed=0:01:46.48    \nframe=   76 fps=0.7 q=39.0 size=     256KiB time=00:00:01.48 bitrate=1417.2kbits/s speed=0.0138x elapsed=0:01:47.05    \nframe=   76 fps=0.7 q=39.0 size=     256KiB time=00:00:01.48 bitrate=1417.2kbits/s speed=0.0138x elapsed=0:01:47.62    \nframe=   77 fps=0.7 q=38.9 size=     256KiB time=00:00:01.50 bitrate=1398.3kbits/s speed=0.0139x elapsed=0:01:48.14    \nframe=   78 fps=0.7 q=39.0 size=     256KiB time=00:00:01.52 bitrate=1379.9kbits/s speed=0.014x elapsed=0:01:48.66    \nframe=   78 fps=0.7 q=39.0 size=     256KiB time=00:00:01.52 bitrate=1379.9kbits/s speed=0.0139x elapsed=0:01:49.18    \nframe=   78 fps=0.7 q=39.0 size=     256KiB time=00:00:01.52 bitrate=1379.9kbits/s speed=0.0139x elapsed=0:01:49.71    \nframe=   78 fps=0.7 q=39.0 size=     256KiB time=00:00:01.52 bitrate=1379.9kbits/s speed=0.0138x elapsed=0:01:50.32    \nframe=   78 fps=0.7 q=39.0 size=     256KiB time=00:00:01.52 bitrate=1379.9kbits/s speed=0.0137x elapsed=0:01:50.84    \nframe=   78 fps=0.7 q=39.0 size=     256KiB time=00:00:01.52 bitrate=1379.9kbits/s speed=0.0136x elapsed=0:01:51.36    \nframe=   78 fps=0.7 q=39.0 size=     256KiB time=00:00:01.52 bitrate=1379.9kbits/s speed=0.0136x elapsed=0:01:51.90    \nframe=   79 fps=0.7 q=31.8 size=     256KiB time=00:00:01.54 bitrate=1362.0kbits/s speed=0.0137x elapsed=0:01:52.44    \nframe=   79 fps=0.7 q=31.8 size=     256KiB time=00:00:01.54 bitrate=1362.0kbits/s speed=0.0136x elapsed=0:01:53.01    \nframe=   79 fps=0.7 q=31.8 size=     256KiB time=00:00:01.54 bitrate=1362.0kbits/s speed=0.0136x elapsed=0:01:53.53    \nframe=   79 fps=0.7 q=31.8 size=     256KiB time=00:00:01.54 bitrate=1362.0kbits/s speed=0.0135x elapsed=0:01:54.06    \nframe=   80 fps=0.7 q=37.9 size=     256KiB time=00:00:01.56 bitrate=1344.6kbits/s speed=0.0136x elapsed=0:01:54.59    \nframe=   80 fps=0.7 q=37.9 size=     256KiB time=00:00:01.56 bitrate=1344.6kbits/s speed=0.0135x elapsed=0:01:55.19    \nframe=   80 fps=0.7 q=37.9 size=     256KiB time=00:00:01.56 bitrate=1344.6kbits/s speed=0.0135x elapsed=0:01:55.69    \nframe=   81 fps=0.7 q=39.0 size=     256KiB time=00:00:01.58 bitrate=1327.5kbits/s speed=0.0136x elapsed=0:01:56.21    \nframe=   81 fps=0.7 q=39.0 size=     256KiB time=00:00:01.58 bitrate=1327.5kbits/s speed=0.0135x elapsed=0:01:56.73    \nframe=   81 fps=0.7 q=39.0 size=     256KiB time=00:00:01.58 bitrate=1327.5kbits/s speed=0.0135x elapsed=0:01:57.26    \nframe=   81 fps=0.7 q=39.0 size=     256KiB time=00:00:01.58 bitrate=1327.5kbits/s speed=0.0134x elapsed=0:01:57.78    \nframe=   81 fps=0.7 q=39.0 size=     256KiB time=00:00:01.58 bitrate=1327.5kbits/s speed=0.0134x elapsed=0:01:58.30    \nframe=   81 fps=0.7 q=39.0 size=     256KiB time=00:00:01.58 bitrate=1327.5kbits/s speed=0.0133x elapsed=0:01:58.82    \nframe=   82 fps=0.7 q=39.0 size=     256KiB time=00:00:01.60 bitrate=1310.9kbits/s speed=0.0134x elapsed=0:01:59.37    \nframe=   82 fps=0.7 q=39.0 size=     256KiB time=00:00:01.60 bitrate=1310.9kbits/s speed=0.0133x elapsed=0:01:59.89    \nframe=   82 fps=0.7 q=39.0 size=     256KiB time=00:00:01.60 bitrate=1310.9kbits/s speed=0.0133x elapsed=0:02:00.41    \nframe=   83 fps=0.7 q=39.0 size=     256KiB time=00:00:01.62 bitrate=1294.8kbits/s speed=0.0134x elapsed=0:02:00.93    \nframe=   83 fps=0.7 q=39.0 size=     256KiB time=00:00:01.62 bitrate=1294.8kbits/s speed=0.0133x elapsed=0:02:01.45    \nframe=   83 fps=0.7 q=39.0 size=     256KiB time=00:00:01.62 bitrate=1294.8kbits/s speed=0.0133x elapsed=0:02:01.98    \nframe=   84 fps=0.7 q=32.2 size=     256KiB time=00:00:01.64 bitrate=1279.0kbits/s speed=0.0134x elapsed=0:02:02.53    \nframe=   84 fps=0.7 q=32.2 size=     256KiB time=00:00:01.64 bitrate=1279.0kbits/s speed=0.0133x elapsed=0:02:03.10    \nframe=   84 fps=0.7 q=32.2 size=     256KiB time=00:00:01.64 bitrate=1279.0kbits/s speed=0.0133x elapsed=0:02:03.62    \nframe=   84 fps=0.7 q=32.2 size=     256KiB time=00:00:01.64 bitrate=1279.0kbits/s speed=0.0132x elapsed=0:02:04.14    \nframe=   85 fps=0.7 q=39.0 size=     256KiB time=00:00:01.66 bitrate=1263.6kbits/s speed=0.0133x elapsed=0:02:04.67    \nframe=   86 fps=0.7 q=39.0 size=     256KiB time=00:00:01.68 bitrate=1248.5kbits/s speed=0.0134x elapsed=0:02:05.19    \nframe=   86 fps=0.7 q=39.0 size=     256KiB time=00:00:01.68 bitrate=1248.5kbits/s speed=0.0134x elapsed=0:02:05.70    \nframe=   86 fps=0.7 q=39.0 size=     256KiB time=00:00:01.68 bitrate=1248.5kbits/s speed=0.0133x elapsed=0:02:06.22    \nframe=   86 fps=0.7 q=39.0 size=     256KiB time=00:00:01.68 bitrate=1248.5kbits/s speed=0.0133x elapsed=0:02:06.76    \nframe=   87 fps=0.7 q=40.0 size=     256KiB time=00:00:01.70 bitrate=1233.8kbits/s speed=0.0134x elapsed=0:02:07.31    \nframe=   87 fps=0.7 q=40.0 size=     256KiB time=00:00:01.70 bitrate=1233.8kbits/s speed=0.0133x elapsed=0:02:07.82    \nframe=   87 fps=0.7 q=40.0 size=     256KiB time=00:00:01.70 bitrate=1233.8kbits/s speed=0.0132x elapsed=0:02:08.33    \nframe=   88 fps=0.7 q=38.9 size=     256KiB time=00:00:01.72 bitrate=1219.5kbits/s speed=0.0133x elapsed=0:02:08.89    \nframe=   88 fps=0.7 q=38.9 size=     256KiB time=00:00:01.72 bitrate=1219.5kbits/s speed=0.0133x elapsed=0:02:09.43    \nframe=   88 fps=0.7 q=38.9 size=     256KiB time=00:00:01.72 bitrate=1219.5kbits/s speed=0.0132x elapsed=0:02:09.94    \nframe=   88 fps=0.7 q=38.9 size=     256KiB time=00:00:01.72 bitrate=1219.5kbits/s speed=0.0132x elapsed=0:02:10.48    \nframe=   88 fps=0.7 q=38.9 size=     256KiB time=00:00:01.72 bitrate=1219.5kbits/s speed=0.0131x elapsed=0:02:11.01    \nframe=   88 fps=0.7 q=38.9 size=     256KiB time=00:00:01.72 bitrate=1219.5kbits/s speed=0.0131x elapsed=0:02:11.57    \nframe=   88 fps=0.7 q=38.9 size=     256KiB time=00:00:01.72 bitrate=1219.5kbits/s speed=0.013x elapsed=0:02:12.10    \nframe=   88 fps=0.7 q=38.9 size=     256KiB time=00:00:01.72 bitrate=1219.5kbits/s speed=0.013x elapsed=0:02:12.62    \nframe=   88 fps=0.7 q=38.9 size=     256KiB time=00:00:01.72 bitrate=1219.5kbits/s speed=0.0129x elapsed=0:02:13.14    \nframe=   89 fps=0.7 q=32.3 size=     256KiB time=00:00:01.74 bitrate=1205.5kbits/s speed=0.013x elapsed=0:02:13.70    \nframe=   89 fps=0.7 q=32.3 size=     256KiB time=00:00:01.74 bitrate=1205.5kbits/s speed=0.013x elapsed=0:02:14.25    \nframe=   89 fps=0.7 q=32.3 size=     256KiB time=00:00:01.74 bitrate=1205.5kbits/s speed=0.0129x elapsed=0:02:14.82    \nframe=   89 fps=0.7 q=32.3 size=     256KiB time=00:00:01.74 bitrate=1205.5kbits/s speed=0.0129x elapsed=0:02:15.37    \nframe=   90 fps=0.7 q=39.0 size=     256KiB time=00:00:01.76 bitrate=1191.8kbits/s speed=0.0129x elapsed=0:02:15.90    \nframe=   90 fps=0.7 q=39.0 size=     256KiB time=00:00:01.76 bitrate=1191.8kbits/s speed=0.0129x elapsed=0:02:16.49    \nframe=   90 fps=0.7 q=39.0 size=     256KiB time=00:00:01.76 bitrate=1191.8kbits/s speed=0.0128x elapsed=0:02:17.03    \nframe=   90 fps=0.7 q=39.0 size=     256KiB time=00:00:01.76 bitrate=1191.8kbits/s speed=0.0128x elapsed=0:02:17.58    \nframe=   90 fps=0.7 q=39.0 size=     256KiB time=00:00:01.76 bitrate=1191.8kbits/s speed=0.0127x elapsed=0:02:18.09    \nframe=   90 fps=0.6 q=39.0 size=     256KiB time=00:00:01.76 bitrate=1191.8kbits/s speed=0.0127x elapsed=0:02:18.61    \nframe=   91 fps=0.7 q=40.0 size=     256KiB time=00:00:01.76 bitrate=1191.8kbits/s speed=0.0126x elapsed=0:02:19.15    \nframe=   92 fps=0.7 q=40.0 size=     256KiB time=00:00:01.80 bitrate=1165.3kbits/s speed=0.0129x elapsed=0:02:19.72    \nframe=   93 fps=0.7 q=31.8 size=     256KiB time=00:00:01.82 bitrate=1152.5kbits/s speed=0.013x elapsed=0:02:20.25    \nframe=   93 fps=0.7 q=31.8 size=     256KiB time=00:00:01.82 bitrate=1152.5kbits/s speed=0.0129x elapsed=0:02:20.77    \nframe=   93 fps=0.7 q=31.8 size=     256KiB time=00:00:01.82 bitrate=1152.5kbits/s speed=0.0129x elapsed=0:02:21.27    \nframe=   93 fps=0.7 q=31.8 size=     256KiB time=00:00:01.82 bitrate=1152.5kbits/s speed=0.0128x elapsed=0:02:21.82    \nframe=   93 fps=0.7 q=31.8 size=     256KiB time=00:00:01.82 bitrate=1152.5kbits/s speed=0.0128x elapsed=0:02:22.34    \nframe=   94 fps=0.7 q=39.0 size=     512KiB time=00:00:01.84 bitrate=2279.7kbits/s speed=0.0129x elapsed=0:02:22.89    \nframe=   94 fps=0.7 q=39.0 size=     512KiB time=00:00:01.84 bitrate=2279.7kbits/s speed=0.0128x elapsed=0:02:23.41    \nframe=   94 fps=0.7 q=39.0 size=     512KiB time=00:00:01.84 bitrate=2279.7kbits/s speed=0.0128x elapsed=0:02:23.95    \nframe=   94 fps=0.7 q=39.0 size=     512KiB time=00:00:01.84 bitrate=2279.7kbits/s speed=0.0127x elapsed=0:02:24.47    \nframe=   94 fps=0.6 q=39.0 size=     512KiB time=00:00:01.84 bitrate=2279.7kbits/s speed=0.0127x elapsed=0:02:24.99    \nframe=   95 fps=0.7 q=40.0 size=     512KiB time=00:00:01.86 bitrate=2255.2kbits/s speed=0.0128x elapsed=0:02:25.51    \nframe=   95 fps=0.7 q=40.0 size=     512KiB time=00:00:01.86 bitrate=2255.2kbits/s speed=0.0127x elapsed=0:02:26.04    \nframe=   96 fps=0.7 q=32.2 size=     512KiB time=00:00:01.88 bitrate=2231.2kbits/s speed=0.0128x elapsed=0:02:26.57    \nframe=   96 fps=0.7 q=32.2 size=     512KiB time=00:00:01.88 bitrate=2231.2kbits/s speed=0.0128x elapsed=0:02:27.12    \nframe=   98 fps=0.7 q=40.0 size=     512KiB time=00:00:01.92 bitrate=2184.7kbits/s speed=0.013x elapsed=0:02:27.63    \nframe=   99 fps=0.7 q=40.0 size=     512KiB time=00:00:01.94 bitrate=2162.2kbits/s speed=0.0131x elapsed=0:02:28.15    \nframe=   99 fps=0.7 q=40.0 size=     512KiB time=00:00:01.94 bitrate=2162.2kbits/s speed=0.013x elapsed=0:02:28.69    \nframe=  100 fps=0.7 q=40.0 size=     512KiB time=00:00:01.96 bitrate=2140.1kbits/s speed=0.0131x elapsed=0:02:29.21    \nframe=  100 fps=0.7 q=40.0 size=     512KiB time=00:00:01.96 bitrate=2140.1kbits/s speed=0.0131x elapsed=0:02:29.73    \nframe=  102 fps=0.7 q=39.7 size=     512KiB time=00:00:01.98 bitrate=2118.5kbits/s speed=0.0132x elapsed=0:02:30.27    \nframe=  102 fps=0.7 q=39.7 size=     512KiB time=00:00:02.00 bitrate=2097.3kbits/s speed=0.0133x elapsed=0:02:30.79    \nframe=  102 fps=0.7 q=39.7 size=     512KiB time=00:00:02.00 bitrate=2097.3kbits/s speed=0.0132x elapsed=0:02:31.30    \nframe=  102 fps=0.7 q=39.7 size=     512KiB time=00:00:02.00 bitrate=2097.3kbits/s speed=0.0132x elapsed=0:02:31.82    \nframe=  102 fps=0.7 q=39.7 size=     512KiB time=00:00:02.00 bitrate=2097.3kbits/s speed=0.0131x elapsed=0:02:32.34    \nframe=  102 fps=0.7 q=39.7 size=     512KiB time=00:00:02.00 bitrate=2097.3kbits/s speed=0.0131x elapsed=0:02:32.86    \nframe=  102 fps=0.7 q=39.7 size=     512KiB time=00:00:02.00 bitrate=2097.3kbits/s speed=0.013x elapsed=0:02:33.44    \nframe=  102 fps=0.7 q=39.7 size=     512KiB time=00:00:02.00 bitrate=2097.3kbits/s speed=0.013x elapsed=0:02:34.02    \nframe=  103 fps=0.7 q=41.0 size=     512KiB time=00:00:02.02 bitrate=2076.6kbits/s speed=0.0131x elapsed=0:02:34.56    \nframe=  104 fps=0.7 q=40.0 size=     512KiB time=00:00:02.02 bitrate=2076.6kbits/s speed=0.013x elapsed=0:02:35.11    \nframe=  104 fps=0.7 q=40.0 size=     512KiB time=00:00:02.04 bitrate=2056.2kbits/s speed=0.0131x elapsed=0:02:35.68    \nframe=  104 fps=0.7 q=40.0 size=     512KiB time=00:00:02.04 bitrate=2056.2kbits/s speed=0.0131x elapsed=0:02:36.23    \nframe=  105 fps=0.7 q=39.9 size=     512KiB time=00:00:02.06 bitrate=2036.2kbits/s speed=0.0131x elapsed=0:02:36.76    \nframe=  105 fps=0.7 q=39.9 size=     512KiB time=00:00:02.06 bitrate=2036.2kbits/s speed=0.0131x elapsed=0:02:37.27    \nframe=  106 fps=0.7 q=31.8 size=     512KiB time=00:00:02.08 bitrate=2016.7kbits/s speed=0.0132x elapsed=0:02:37.80    \nframe=  107 fps=0.7 q=38.3 size=     512KiB time=00:00:02.10 bitrate=1997.5kbits/s speed=0.0133x elapsed=0:02:38.32    \nframe=  109 fps=0.7 q=40.0 size=     512KiB time=00:00:02.14 bitrate=1960.1kbits/s speed=0.0135x elapsed=0:02:38.84    \nframe=  109 fps=0.7 q=40.0 size=     512KiB time=00:00:02.14 bitrate=1960.1kbits/s speed=0.0134x elapsed=0:02:39.36    \nframe=  109 fps=0.7 q=40.0 size=     512KiB time=00:00:02.14 bitrate=1960.1kbits/s speed=0.0134x elapsed=0:02:39.88    \nframe=  109 fps=0.7 q=40.0 size=     512KiB time=00:00:02.14 bitrate=1960.1kbits/s speed=0.0133x elapsed=0:02:40.40    \nframe=  110 fps=0.7 q=40.0 size=     512KiB time=00:00:02.16 bitrate=1942.0kbits/s speed=0.0134x elapsed=0:02:40.94    \nframe=  110 fps=0.7 q=40.0 size=     512KiB time=00:00:02.16 bitrate=1942.0kbits/s speed=0.0134x elapsed=0:02:41.44    \nframe=  110 fps=0.7 q=40.0 size=     512KiB time=00:00:02.16 bitrate=1942.0kbits/s speed=0.0133x elapsed=0:02:41.96    \nframe=  111 fps=0.7 q=31.7 size=     512KiB time=00:00:02.18 bitrate=1924.2kbits/s speed=0.0134x elapsed=0:02:42.50    \nframe=  112 fps=0.7 q=38.6 size=     512KiB time=00:00:02.20 bitrate=1906.7kbits/s speed=0.0135x elapsed=0:02:43.02    \nframe=  112 fps=0.7 q=38.6 size=     512KiB time=00:00:02.20 bitrate=1906.7kbits/s speed=0.0135x elapsed=0:02:43.54    \nframe=  112 fps=0.7 q=38.6 size=     512KiB time=00:00:02.20 bitrate=1906.7kbits/s speed=0.0134x elapsed=0:02:44.07    \nframe=  112 fps=0.7 q=38.6 size=     512KiB time=00:00:02.20 bitrate=1906.7kbits/s speed=0.0134x elapsed=0:02:44.60    \nframe=  112 fps=0.7 q=38.6 size=     512KiB time=00:00:02.20 bitrate=1906.7kbits/s speed=0.0133x elapsed=0:02:45.12    \nframe=  113 fps=0.7 q=40.0 size=     512KiB time=00:00:02.22 bitrate=1889.5kbits/s speed=0.0134x elapsed=0:02:45.66    \nframe=  113 fps=0.7 q=40.0 size=     512KiB time=00:00:02.22 bitrate=1889.5kbits/s speed=0.0134x elapsed=0:02:46.18    \nframe=  113 fps=0.7 q=40.0 size=     512KiB time=00:00:02.22 bitrate=1889.5kbits/s speed=0.0133x elapsed=0:02:46.70    \nframe=  113 fps=0.7 q=40.0 size=     512KiB time=00:00:02.22 bitrate=1889.5kbits/s speed=0.0133x elapsed=0:02:47.23    \nframe=  114 fps=0.7 q=37.9 size=     512KiB time=00:00:02.24 bitrate=1872.6kbits/s speed=0.0134x elapsed=0:02:47.75    \nframe=  114 fps=0.7 q=37.9 size=     512KiB time=00:00:02.24 bitrate=1872.6kbits/s speed=0.0133x elapsed=0:02:48.28    \nframe=  115 fps=0.7 q=38.0 size=     512KiB time=00:00:02.24 bitrate=1872.6kbits/s speed=0.0133x elapsed=0:02:48.79    \nframe=  115 fps=0.7 q=38.0 size=     512KiB time=00:00:02.26 bitrate=1856.0kbits/s speed=0.0133x elapsed=0:02:49.34    \nframe=  115 fps=0.7 q=38.0 size=     512KiB time=00:00:02.26 bitrate=1856.0kbits/s speed=0.0133x elapsed=0:02:49.86    \nframe=  116 fps=0.7 q=30.9 size=     512KiB time=00:00:02.28 bitrate=1839.8kbits/s speed=0.0134x elapsed=0:02:50.40    \nframe=  116 fps=0.7 q=30.9 size=     512KiB time=00:00:02.28 bitrate=1839.8kbits/s speed=0.0133x elapsed=0:02:50.92    \nframe=  116 fps=0.7 q=30.9 size=     512KiB time=00:00:02.28 bitrate=1839.8kbits/s speed=0.0133x elapsed=0:02:51.46    \nframe=  117 fps=0.7 q=37.7 size=     512KiB time=00:00:02.30 bitrate=1823.8kbits/s speed=0.0134x elapsed=0:02:51.98    \nframe=  117 fps=0.7 q=37.7 size=     512KiB time=00:00:02.30 bitrate=1823.8kbits/s speed=0.0133x elapsed=0:02:52.54    \nframe=  117 fps=0.7 q=37.7 size=     512KiB time=00:00:02.30 bitrate=1823.8kbits/s speed=0.0133x elapsed=0:02:53.04    \nframe=  117 fps=0.7 q=37.7 size=     512KiB time=00:00:02.30 bitrate=1823.8kbits/s speed=0.0132x elapsed=0:02:53.59    \nframe=  117 fps=0.7 q=37.7 size=     512KiB time=00:00:02.30 bitrate=1823.8kbits/s speed=0.0132x elapsed=0:02:54.10    \nframe=  117 fps=0.7 q=37.7 size=     512KiB time=00:00:02.30 bitrate=1823.8kbits/s speed=0.0132x elapsed=0:02:54.62    \nframe=  117 fps=0.7 q=37.7 size=     512KiB time=00:00:02.30 bitrate=1823.8kbits/s speed=0.0131x elapsed=0:02:55.16    \nframe=  117 fps=0.7 q=37.7 size=     512KiB time=00:00:02.30 bitrate=1823.8kbits/s speed=0.0131x elapsed=0:02:55.69    \nframe=  117 fps=0.7 q=37.7 size=     512KiB time=00:00:02.30 bitrate=1823.8kbits/s speed=0.0131x elapsed=0:02:56.21    \nframe=  117 fps=0.7 q=37.7 size=     512KiB time=00:00:02.30 bitrate=1823.8kbits/s speed=0.013x elapsed=0:02:56.75    \nframe=  117 fps=0.7 q=37.7 size=     512KiB time=00:00:02.30 bitrate=1823.8kbits/s speed=0.013x elapsed=0:02:57.27    \nframe=  117 fps=0.7 q=37.7 size=     512KiB time=00:00:02.30 bitrate=1823.8kbits/s speed=0.0129x elapsed=0:02:57.80    \nframe=  118 fps=0.7 q=38.0 size=     512KiB time=00:00:02.32 bitrate=1808.0kbits/s speed=0.013x elapsed=0:02:58.32    \nframe=  118 fps=0.7 q=38.0 size=     512KiB time=00:00:02.32 bitrate=1808.0kbits/s speed=0.013x elapsed=0:02:58.87    \nframe=  118 fps=0.7 q=38.0 size=     512KiB time=00:00:02.32 bitrate=1808.0kbits/s speed=0.0129x elapsed=0:02:59.39    \nframe=  118 fps=0.7 q=38.0 size=     512KiB time=00:00:02.32 bitrate=1808.0kbits/s speed=0.0129x elapsed=0:02:59.91    \nframe=  118 fps=0.7 q=38.0 size=     512KiB time=00:00:02.32 bitrate=1808.0kbits/s speed=0.0129x elapsed=0:03:00.43    \nframe=  119 fps=0.7 q=38.0 size=     512KiB time=00:00:02.34 bitrate=1792.6kbits/s speed=0.0129x elapsed=0:03:00.96    \nframe=  119 fps=0.7 q=38.0 size=     512KiB time=00:00:02.34 bitrate=1792.6kbits/s speed=0.0129x elapsed=0:03:01.48    \nframe=  119 fps=0.7 q=38.0 size=     512KiB time=00:00:02.34 bitrate=1792.6kbits/s speed=0.0129x elapsed=0:03:02.00    \nframe=  119 fps=0.7 q=38.0 size=     512KiB time=00:00:02.34 bitrate=1792.6kbits/s speed=0.0128x elapsed=0:03:02.54    \nframe=  119 fps=0.6 q=38.0 size=     512KiB time=00:00:02.34 bitrate=1792.6kbits/s speed=0.0128x elapsed=0:03:03.07    \nframe=  119 fps=0.6 q=38.0 size=     512KiB time=00:00:02.34 bitrate=1792.6kbits/s speed=0.0127x elapsed=0:03:03.59    \nframe=  120 fps=0.7 q=38.0 size=     512KiB time=00:00:02.36 bitrate=1777.4kbits/s speed=0.0128x elapsed=0:03:04.12    \nframe=  120 fps=0.6 q=38.0 size=     512KiB time=00:00:02.36 bitrate=1777.4kbits/s speed=0.0128x elapsed=0:03:04.70    \nframe=  121 fps=0.7 q=31.5 size=     512KiB time=00:00:02.38 bitrate=1762.5kbits/s speed=0.0128x elapsed=0:03:05.21    \nframe=  122 fps=0.7 q=37.0 size=     512KiB time=00:00:02.40 bitrate=1747.8kbits/s speed=0.0129x elapsed=0:03:05.76    \nframe=  122 fps=0.7 q=37.0 size=     512KiB time=00:00:02.40 bitrate=1747.8kbits/s speed=0.0129x elapsed=0:03:06.32    \nframe=  123 fps=0.7 q=39.0 size=     512KiB time=00:00:02.42 bitrate=1733.3kbits/s speed=0.013x elapsed=0:03:06.87    \nframe=  123 fps=0.7 q=39.0 size=     512KiB time=00:00:02.42 bitrate=1733.3kbits/s speed=0.0129x elapsed=0:03:07.45    \nframe=  124 fps=0.7 q=38.8 size=     512KiB time=00:00:02.44 bitrate=1719.1kbits/s speed=0.013x elapsed=0:03:08.03    \nframe=  124 fps=0.7 q=38.8 size=     512KiB time=00:00:02.44 bitrate=1719.1kbits/s speed=0.0129x elapsed=0:03:08.59    \nframe=  124 fps=0.7 q=38.8 size=     512KiB time=00:00:02.44 bitrate=1719.1kbits/s speed=0.0129x elapsed=0:03:09.13    \nframe=  125 fps=0.7 q=39.0 size=     512KiB time=00:00:02.46 bitrate=1705.1kbits/s speed=0.013x elapsed=0:03:09.67    \nframe=  125 fps=0.7 q=39.0 size=     512KiB time=00:00:02.46 bitrate=1705.1kbits/s speed=0.0129x elapsed=0:03:10.24    \nframe=  125 fps=0.7 q=39.0 size=     512KiB time=00:00:02.46 bitrate=1705.1kbits/s speed=0.0129x elapsed=0:03:10.81    \nframe=  125 fps=0.7 q=39.0 size=     512KiB time=00:00:02.46 bitrate=1705.1kbits/s speed=0.0129x elapsed=0:03:11.41    \nframe=  125 fps=0.7 q=39.0 size=     512KiB time=00:00:02.46 bitrate=1705.1kbits/s speed=0.0128x elapsed=0:03:12.02    \nframe=  125 fps=0.6 q=39.0 size=     512KiB time=00:00:02.46 bitrate=1705.1kbits/s speed=0.0128x elapsed=0:03:12.58    \nframe=  126 fps=0.7 q=31.8 size=     512KiB time=00:00:02.48 bitrate=1691.4kbits/s speed=0.0128x elapsed=0:03:13.13    \nframe=  126 fps=0.7 q=31.8 size=     512KiB time=00:00:02.48 bitrate=1691.4kbits/s speed=0.0128x elapsed=0:03:13.71    \nframe=  126 fps=0.6 q=31.8 size=     512KiB time=00:00:02.48 bitrate=1691.4kbits/s speed=0.0128x elapsed=0:03:14.31    \nframe=  127 fps=0.7 q=39.0 size=     512KiB time=00:00:02.50 bitrate=1677.9kbits/s speed=0.0128x elapsed=0:03:14.90    \nframe=  127 fps=0.6 q=39.0 size=     512KiB time=00:00:02.50 bitrate=1677.9kbits/s speed=0.0128x elapsed=0:03:15.51    \nframe=  127 fps=0.6 q=39.0 size=     512KiB time=00:00:02.50 bitrate=1677.9kbits/s speed=0.0127x elapsed=0:03:16.11    \nframe=  127 fps=0.6 q=39.0 size=     512KiB time=00:00:02.50 bitrate=1677.9kbits/s speed=0.0127x elapsed=0:03:16.67    \nframe=  127 fps=0.6 q=39.0 size=     512KiB time=00:00:02.50 bitrate=1677.9kbits/s speed=0.0127x elapsed=0:03:17.28    \nframe=  127 fps=0.6 q=39.0 size=     512KiB time=00:00:02.50 bitrate=1677.9kbits/s speed=0.0126x elapsed=0:03:17.89    \nframe=  127 fps=0.6 q=39.0 size=     512KiB time=00:00:02.50 bitrate=1677.9kbits/s speed=0.0126x elapsed=0:03:18.52    \nframe=  127 fps=0.6 q=39.0 size=     512KiB time=00:00:02.50 bitrate=1677.9kbits/s speed=0.0126x elapsed=0:03:19.10    \nframe=  128 fps=0.6 q=40.0 size=     512KiB time=00:00:02.52 bitrate=1664.5kbits/s speed=0.0126x elapsed=0:03:19.66    \nframe=  128 fps=0.6 q=40.0 size=     512KiB time=00:00:02.52 bitrate=1664.5kbits/s speed=0.0126x elapsed=0:03:20.20    \nframe=  128 fps=0.6 q=40.0 size=     512KiB time=00:00:02.52 bitrate=1664.5kbits/s speed=0.0126x elapsed=0:03:20.74    \nframe=  129 fps=0.6 q=40.0 size=     512KiB time=00:00:02.54 bitrate=1651.4kbits/s speed=0.0126x elapsed=0:03:21.32    \nframe=  129 fps=0.6 q=40.0 size=     512KiB time=00:00:02.54 bitrate=1651.4kbits/s speed=0.0126x elapsed=0:03:21.88    \nframe=  130 fps=0.6 q=39.0 size=     512KiB time=00:00:02.56 bitrate=1638.5kbits/s speed=0.0126x elapsed=0:03:22.43    \nframe=  130 fps=0.6 q=39.0 size=     512KiB time=00:00:02.56 bitrate=1638.5kbits/s speed=0.0126x elapsed=0:03:22.95    \nframe=  130 fps=0.6 q=39.0 size=     512KiB time=00:00:02.56 bitrate=1638.5kbits/s speed=0.0126x elapsed=0:03:23.50    \nframe=  130 fps=0.6 q=39.0 size=     512KiB time=00:00:02.56 bitrate=1638.5kbits/s speed=0.0125x elapsed=0:03:24.01    \nframe=  131 fps=0.6 q=31.1 size=     512KiB time=00:00:02.58 bitrate=1625.8kbits/s speed=0.0126x elapsed=0:03:24.56    \nframe=  131 fps=0.6 q=31.1 size=     512KiB time=00:00:02.58 bitrate=1625.8kbits/s speed=0.0126x elapsed=0:03:25.11    \nframe=  132 fps=0.6 q=38.0 size=     512KiB time=00:00:02.60 bitrate=1613.3kbits/s speed=0.0126x elapsed=0:03:25.70    \nframe=  133 fps=0.6 q=40.0 size=     512KiB time=00:00:02.62 bitrate=1601.0kbits/s speed=0.0127x elapsed=0:03:26.25    \nframe=  133 fps=0.6 q=40.0 size=     512KiB time=00:00:02.62 bitrate=1601.0kbits/s speed=0.0127x elapsed=0:03:26.76    \nframe=  133 fps=0.6 q=40.0 size=     512KiB time=00:00:02.62 bitrate=1601.0kbits/s speed=0.0126x elapsed=0:03:27.28    \nframe=  134 fps=0.6 q=38.0 size=     512KiB time=00:00:02.64 bitrate=1588.9kbits/s speed=0.0127x elapsed=0:03:27.84    \nframe=  134 fps=0.6 q=38.0 size=     512KiB time=00:00:02.64 bitrate=1588.9kbits/s speed=0.0127x elapsed=0:03:28.36    \nframe=  134 fps=0.6 q=38.0 size=     512KiB time=00:00:02.64 bitrate=1588.9kbits/s speed=0.0126x elapsed=0:03:28.89    \nframe=  134 fps=0.6 q=38.0 size=     512KiB time=00:00:02.64 bitrate=1588.9kbits/s speed=0.0126x elapsed=0:03:29.43    \nframe=  135 fps=0.6 q=38.0 size=     512KiB time=00:00:02.66 bitrate=1576.9kbits/s speed=0.0127x elapsed=0:03:29.99    \nframe=  137 fps=0.7 q=37.0 size=     768KiB time=00:00:02.70 bitrate=2330.3kbits/s speed=0.0128x elapsed=0:03:30.52    \nframe=  137 fps=0.6 q=37.0 size=     768KiB time=00:00:02.70 bitrate=2330.3kbits/s speed=0.0128x elapsed=0:03:31.06    \nframe=  137 fps=0.6 q=37.0 size=     768KiB time=00:00:02.70 bitrate=2330.3kbits/s speed=0.0128x elapsed=0:03:31.65    \nframe=  137 fps=0.6 q=37.0 size=     768KiB time=00:00:02.70 bitrate=2330.3kbits/s speed=0.0127x elapsed=0:03:32.20    \nframe=  137 fps=0.6 q=37.0 size=     768KiB time=00:00:02.70 bitrate=2330.3kbits/s speed=0.0127x elapsed=0:03:32.73    \nframe=  137 fps=0.6 q=37.0 size=     768KiB time=00:00:02.70 bitrate=2330.3kbits/s speed=0.0127x elapsed=0:03:33.26    \nframe=  137 fps=0.6 q=37.0 size=     768KiB time=00:00:02.70 bitrate=2330.3kbits/s speed=0.0126x elapsed=0:03:33.78    \nframe=  137 fps=0.6 q=37.0 size=     768KiB time=00:00:02.70 bitrate=2330.3kbits/s speed=0.0126x elapsed=0:03:34.42    \nframe=  138 fps=0.6 q=38.0 size=     768KiB time=00:00:02.72 bitrate=2313.2kbits/s speed=0.0126x elapsed=0:03:35.07    \nframe=  138 fps=0.6 q=38.0 size=     768KiB time=00:00:02.72 bitrate=2313.2kbits/s speed=0.0126x elapsed=0:03:35.71    \nframe=  138 fps=0.6 q=38.0 size=     768KiB time=00:00:02.72 bitrate=2313.2kbits/s speed=0.0126x elapsed=0:03:36.30    \nframe=  138 fps=0.6 q=38.0 size=     768KiB time=00:00:02.72 bitrate=2313.2kbits/s speed=0.0125x elapsed=0:03:36.89    \nframe=  138 fps=0.6 q=38.0 size=     768KiB time=00:00:02.72 bitrate=2313.2kbits/s speed=0.0125x elapsed=0:03:37.48    \nframe=  138 fps=0.6 q=38.0 size=     768KiB time=00:00:02.72 bitrate=2313.2kbits/s speed=0.0125x elapsed=0:03:38.01    \nframe=  138 fps=0.6 q=38.0 size=     768KiB time=00:00:02.72 bitrate=2313.2kbits/s speed=0.0124x elapsed=0:03:38.54    \nframe=  139 fps=0.6 q=38.0 size=     768KiB time=00:00:02.74 bitrate=2296.3kbits/s speed=0.0125x elapsed=0:03:39.11    \nframe=  141 fps=0.6 q=36.3 size=     768KiB time=00:00:02.78 bitrate=2263.2kbits/s speed=0.0127x elapsed=0:03:39.66    \nframe=  141 fps=0.6 q=36.3 size=     768KiB time=00:00:02.78 bitrate=2263.2kbits/s speed=0.0126x elapsed=0:03:40.22    \nframe=  141 fps=0.6 q=36.3 size=     768KiB time=00:00:02.78 bitrate=2263.2kbits/s speed=0.0126x elapsed=0:03:40.81    \nframe=  141 fps=0.6 q=36.3 size=     768KiB time=00:00:02.78 bitrate=2263.2kbits/s speed=0.0126x elapsed=0:03:41.38    \nframe=  142 fps=0.6 q=37.0 size=     768KiB time=00:00:02.80 bitrate=2247.1kbits/s speed=0.0126x elapsed=0:03:41.96    \nframe=  142 fps=0.6 q=37.0 size=     768KiB time=00:00:02.80 bitrate=2247.1kbits/s speed=0.0126x elapsed=0:03:42.52    \nframe=  142 fps=0.6 q=37.0 size=     768KiB time=00:00:02.80 bitrate=2247.1kbits/s speed=0.0126x elapsed=0:03:43.06    \nframe=  144 fps=0.6 q=36.9 size=     768KiB time=00:00:02.82 bitrate=2231.1kbits/s speed=0.0126x elapsed=0:03:43.62    \nframe=  144 fps=0.6 q=36.9 size=     768KiB time=00:00:02.84 bitrate=2215.4kbits/s speed=0.0127x elapsed=0:03:44.21    \nframe=  144 fps=0.6 q=36.9 size=     768KiB time=00:00:02.84 bitrate=2215.4kbits/s speed=0.0126x elapsed=0:03:44.77    \nframe=  144 fps=0.6 q=36.9 size=     768KiB time=00:00:02.84 bitrate=2215.4kbits/s speed=0.0126x elapsed=0:03:45.29    \nframe=  144 fps=0.6 q=36.9 size=     768KiB time=00:00:02.84 bitrate=2215.4kbits/s speed=0.0126x elapsed=0:03:45.90    \nframe=  144 fps=0.6 q=36.9 size=     768KiB time=00:00:02.84 bitrate=2215.4kbits/s speed=0.0125x elapsed=0:03:46.50    \nframe=  144 fps=0.6 q=36.9 size=     768KiB time=00:00:02.84 bitrate=2215.4kbits/s speed=0.0125x elapsed=0:03:47.06    \nframe=  144 fps=0.6 q=36.9 size=     768KiB time=00:00:02.84 bitrate=2215.4kbits/s speed=0.0125x elapsed=0:03:47.62    \nframe=  144 fps=0.6 q=36.9 size=     768KiB time=00:00:02.84 bitrate=2215.4kbits/s speed=0.0124x elapsed=0:03:48.20    \nframe=  144 fps=0.6 q=36.9 size=     768KiB time=00:00:02.84 bitrate=2215.4kbits/s speed=0.0124x elapsed=0:03:48.79    \nframe=  144 fps=0.6 q=36.9 size=     768KiB time=00:00:02.84 bitrate=2215.4kbits/s speed=0.0124x elapsed=0:03:49.35    \nframe=  144 fps=0.6 q=36.9 size=     768KiB time=00:00:02.84 bitrate=2215.4kbits/s speed=0.0124x elapsed=0:03:49.93    \nframe=  146 fps=0.6 q=36.8 size=     768KiB time=00:00:02.88 bitrate=2184.7kbits/s speed=0.0125x elapsed=0:03:50.51    \nframe=  146 fps=0.6 q=36.8 size=     768KiB time=00:00:02.88 bitrate=2184.7kbits/s speed=0.0125x elapsed=0:03:51.07    \nframe=  146 fps=0.6 q=36.8 size=     768KiB time=00:00:02.88 bitrate=2184.7kbits/s speed=0.0124x elapsed=0:03:51.67    \nframe=  146 fps=0.6 q=36.8 size=     768KiB time=00:00:02.88 bitrate=2184.7kbits/s speed=0.0124x elapsed=0:03:52.21    \nframe=  146 fps=0.6 q=36.8 size=     768KiB time=00:00:02.88 bitrate=2184.7kbits/s speed=0.0124x elapsed=0:03:52.79    \nframe=  146 fps=0.6 q=36.8 size=     768KiB time=00:00:02.88 bitrate=2184.7kbits/s speed=0.0123x elapsed=0:03:53.38    \nframe=  147 fps=0.6 q=38.0 size=     768KiB time=00:00:02.90 bitrate=2169.6kbits/s speed=0.0124x elapsed=0:03:53.95    \nframe=  147 fps=0.6 q=38.0 size=     768KiB time=00:00:02.90 bitrate=2169.6kbits/s speed=0.0124x elapsed=0:03:54.53    \nframe=  147 fps=0.6 q=38.0 size=     768KiB time=00:00:02.90 bitrate=2169.6kbits/s speed=0.0123x elapsed=0:03:55.13    \nframe=  147 fps=0.6 q=38.0 size=     768KiB time=00:00:02.90 bitrate=2169.6kbits/s speed=0.0123x elapsed=0:03:55.70    \nframe=  148 fps=0.6 q=38.0 size=     768KiB time=00:00:02.92 bitrate=2154.7kbits/s speed=0.0124x elapsed=0:03:56.24    \nframe=  148 fps=0.6 q=38.0 size=     768KiB time=00:00:02.92 bitrate=2154.7kbits/s speed=0.0123x elapsed=0:03:56.81    \nframe=  149 fps=0.6 q=30.6 size=     768KiB time=00:00:02.94 bitrate=2140.1kbits/s speed=0.0124x elapsed=0:03:57.35    \nframe=  150 fps=0.6 q=36.6 size=     768KiB time=00:00:02.96 bitrate=2125.6kbits/s speed=0.0124x elapsed=0:03:57.91    \nframe=  150 fps=0.6 q=36.6 size=     768KiB time=00:00:02.96 bitrate=2125.6kbits/s speed=0.0124x elapsed=0:03:58.46    \nframe=  150 fps=0.6 q=36.6 size=     768KiB time=00:00:02.96 bitrate=2125.6kbits/s speed=0.0124x elapsed=0:03:59.02    \nframe=  150 fps=0.6 q=36.6 size=     768KiB time=00:00:02.96 bitrate=2125.6kbits/s speed=0.0124x elapsed=0:03:59.57    \nframe=  151 fps=0.6 q=38.0 size=     768KiB time=00:00:02.98 bitrate=2111.3kbits/s speed=0.0124x elapsed=0:04:00.14    \nframe=  152 fps=0.6 q=38.0 size=     768KiB time=00:00:03.00 bitrate=2097.3kbits/s speed=0.0125x elapsed=0:04:00.72    \nframe=  152 fps=0.6 q=38.0 size=     768KiB time=00:00:03.00 bitrate=2097.3kbits/s speed=0.0124x elapsed=0:04:01.28    \nframe=  152 fps=0.6 q=38.0 size=     768KiB time=00:00:03.00 bitrate=2097.3kbits/s speed=0.0124x elapsed=0:04:01.83    \nframe=  153 fps=0.6 q=38.0 size=     768KiB time=00:00:03.02 bitrate=2083.4kbits/s speed=0.0125x elapsed=0:04:02.43    \nframe=  153 fps=0.6 q=38.0 size=     768KiB time=00:00:03.02 bitrate=2083.4kbits/s speed=0.0124x elapsed=0:04:03.01    \nframe=  154 fps=0.6 q=31.0 size=     768KiB time=00:00:03.04 bitrate=2069.7kbits/s speed=0.0125x elapsed=0:04:03.58    \nframe=  154 fps=0.6 q=31.0 size=     768KiB time=00:00:03.04 bitrate=2069.7kbits/s speed=0.0125x elapsed=0:04:04.14    \nframe=  154 fps=0.6 q=31.0 size=     768KiB time=00:00:03.04 bitrate=2069.7kbits/s speed=0.0124x elapsed=0:04:04.70    \nframe=  154 fps=0.6 q=31.0 size=     768KiB time=00:00:03.04 bitrate=2069.7kbits/s speed=0.0124x elapsed=0:04:05.28    \nframe=  154 fps=0.6 q=31.0 size=     768KiB time=00:00:03.04 bitrate=2069.7kbits/s speed=0.0124x elapsed=0:04:05.83    \nframe=  155 fps=0.6 q=31.9 size=     768KiB time=00:00:03.06 bitrate=2056.1kbits/s speed=0.0124x elapsed=0:04:06.37    \nframe=  156 fps=0.6 q=39.0 size=     768KiB time=00:00:03.08 bitrate=2042.8kbits/s speed=0.0125x elapsed=0:04:06.90    \nframe=  156 fps=0.6 q=39.0 size=     768KiB time=00:00:03.08 bitrate=2042.8kbits/s speed=0.0124x elapsed=0:04:07.47    \nframe=  156 fps=0.6 q=39.0 size=     768KiB time=00:00:03.08 bitrate=2042.8kbits/s speed=0.0124x elapsed=0:04:08.04    \nframe=  156 fps=0.6 q=39.0 size=     768KiB time=00:00:03.08 bitrate=2042.8kbits/s speed=0.0124x elapsed=0:04:08.59    \nframe=  158 fps=0.6 q=39.0 size=     768KiB time=00:00:03.12 bitrate=2016.6kbits/s speed=0.0125x elapsed=0:04:09.17    \nframe=  158 fps=0.6 q=39.0 size=     768KiB time=00:00:03.12 bitrate=2016.6kbits/s speed=0.0125x elapsed=0:04:09.80    \nframe=  158 fps=0.6 q=39.0 size=     768KiB time=00:00:03.12 bitrate=2016.6kbits/s speed=0.0125x elapsed=0:04:10.35    \nframe=  158 fps=0.6 q=39.0 size=     768KiB time=00:00:03.12 bitrate=2016.6kbits/s speed=0.0124x elapsed=0:04:10.90    \nframe=  158 fps=0.6 q=39.0 size=     768KiB time=00:00:03.12 bitrate=2016.6kbits/s speed=0.0124x elapsed=0:04:11.53    \nframe=  159 fps=0.6 q=30.9 size=     768KiB time=00:00:03.14 bitrate=2003.8kbits/s speed=0.0125x elapsed=0:04:12.13    \nframe=  159 fps=0.6 q=30.9 size=     768KiB time=00:00:03.14 bitrate=2003.8kbits/s speed=0.0124x elapsed=0:04:12.69    \nframe=  160 fps=0.6 q=37.6 size=     768KiB time=00:00:03.16 bitrate=1991.1kbits/s speed=0.0125x elapsed=0:04:13.24    \nframe=  160 fps=0.6 q=37.6 size=     768KiB time=00:00:03.16 bitrate=1991.1kbits/s speed=0.0125x elapsed=0:04:13.79    \nframe=  161 fps=0.6 q=39.0 size=     768KiB time=00:00:03.18 bitrate=1978.6kbits/s speed=0.0125x elapsed=0:04:14.33    \nframe=  162 fps=0.6 q=38.0 size=     768KiB time=00:00:03.20 bitrate=1966.2kbits/s speed=0.0126x elapsed=0:04:14.90    \nframe=  162 fps=0.6 q=38.0 size=     768KiB time=00:00:03.20 bitrate=1966.2kbits/s speed=0.0125x elapsed=0:04:15.44    \nframe=  162 fps=0.6 q=38.0 size=     768KiB time=00:00:03.20 bitrate=1966.2kbits/s speed=0.0125x elapsed=0:04:15.96    \nframe=  162 fps=0.6 q=38.0 size=     768KiB time=00:00:03.20 bitrate=1966.2kbits/s speed=0.0125x elapsed=0:04:16.48    \nframe=  163 fps=0.6 q=37.0 size=     768KiB time=00:00:03.22 bitrate=1954.0kbits/s speed=0.0125x elapsed=0:04:17.01    \nframe=  163 fps=0.6 q=37.0 size=     768KiB time=00:00:03.22 bitrate=1954.0kbits/s speed=0.0125x elapsed=0:04:17.56    \nframe=  163 fps=0.6 q=37.0 size=     768KiB time=00:00:03.22 bitrate=1954.0kbits/s speed=0.0125x elapsed=0:04:18.14    \nframe=  164 fps=0.6 q=30.2 size=     768KiB time=00:00:03.24 bitrate=1941.9kbits/s speed=0.0125x elapsed=0:04:18.73    \nframe=  164 fps=0.6 q=30.2 size=     768KiB time=00:00:03.24 bitrate=1941.9kbits/s speed=0.0125x elapsed=0:04:19.28    \nframe=  164 fps=0.6 q=30.2 size=     768KiB time=00:00:03.24 bitrate=1941.9kbits/s speed=0.0125x elapsed=0:04:19.83    \nframe=  164 fps=0.6 q=30.2 size=     768KiB time=00:00:03.24 bitrate=1941.9kbits/s speed=0.0124x elapsed=0:04:20.37    \nframe=  164 fps=0.6 q=30.2 size=     768KiB time=00:00:03.24 bitrate=1941.9kbits/s speed=0.0124x elapsed=0:04:20.93    \nframe=  164 fps=0.6 q=30.2 size=     768KiB time=00:00:03.24 bitrate=1941.9kbits/s speed=0.0124x elapsed=0:04:21.48    \nframe=  165 fps=0.6 q=36.7 size=     768KiB time=00:00:03.26 bitrate=1930.0kbits/s speed=0.0124x elapsed=0:04:22.01    \nframe=  165 fps=0.6 q=36.7 size=     768KiB time=00:00:03.26 bitrate=1930.0kbits/s speed=0.0124x elapsed=0:04:22.54    \nframe=  165 fps=0.6 q=36.7 size=     768KiB time=00:00:03.26 bitrate=1930.0kbits/s speed=0.0124x elapsed=0:04:23.08    \nframe=  166 fps=0.6 q=38.0 size=     768KiB time=00:00:03.28 bitrate=1918.2kbits/s speed=0.0124x elapsed=0:04:23.60    \nframe=  166 fps=0.6 q=38.0 size=     768KiB time=00:00:03.28 bitrate=1918.2kbits/s speed=0.0124x elapsed=0:04:24.15    \nframe=  166 fps=0.6 q=38.0 size=     768KiB time=00:00:03.28 bitrate=1918.2kbits/s speed=0.0124x elapsed=0:04:24.67    \nframe=  166 fps=0.6 q=38.0 size=     768KiB time=00:00:03.28 bitrate=1918.2kbits/s speed=0.0124x elapsed=0:04:25.22    \nframe=  167 fps=0.6 q=37.0 size=     768KiB time=00:00:03.30 bitrate=1906.6kbits/s speed=0.0124x elapsed=0:04:25.77    \nframe=  167 fps=0.6 q=37.0 size=     768KiB time=00:00:03.30 bitrate=1906.6kbits/s speed=0.0124x elapsed=0:04:26.35    \nframe=  167 fps=0.6 q=37.0 size=     768KiB time=00:00:03.30 bitrate=1906.6kbits/s speed=0.0124x elapsed=0:04:26.95    \nframe=  168 fps=0.6 q=30.1 size=     768KiB time=00:00:03.32 bitrate=1895.1kbits/s speed=0.0124x elapsed=0:04:27.52    \nframe=  169 fps=0.6 q=35.5 size=     768KiB time=00:00:03.34 bitrate=1883.8kbits/s speed=0.0125x elapsed=0:04:28.05    \nframe=  169 fps=0.6 q=35.5 size=     768KiB time=00:00:03.34 bitrate=1883.8kbits/s speed=0.0124x elapsed=0:04:28.59    \nframe=  169 fps=0.6 q=35.5 size=     768KiB time=00:00:03.34 bitrate=1883.8kbits/s speed=0.0124x elapsed=0:04:29.12    \nframe=  170 fps=0.6 q=37.0 size=     768KiB time=00:00:03.36 bitrate=1872.6kbits/s speed=0.0125x elapsed=0:04:29.66    \nframe=  170 fps=0.6 q=37.0 size=     768KiB time=00:00:03.36 bitrate=1872.6kbits/s speed=0.0124x elapsed=0:04:30.21    \nframe=  170 fps=0.6 q=37.0 size=     768KiB time=00:00:03.36 bitrate=1872.6kbits/s speed=0.0124x elapsed=0:04:30.74    \nframe=  171 fps=0.6 q=36.9 size=     768KiB time=00:00:03.38 bitrate=1861.5kbits/s speed=0.0125x elapsed=0:04:31.29    \nframe=  171 fps=0.6 q=36.9 size=     768KiB time=00:00:03.38 bitrate=1861.5kbits/s speed=0.0124x elapsed=0:04:31.89    \nframe=  172 fps=0.6 q=37.0 size=     768KiB time=00:00:03.40 bitrate=1850.5kbits/s speed=0.0125x elapsed=0:04:32.48    \nframe=  172 fps=0.6 q=37.0 size=     768KiB time=00:00:03.40 bitrate=1850.5kbits/s speed=0.0125x elapsed=0:04:33.05    \nframe=  172 fps=0.6 q=37.0 size=     768KiB time=00:00:03.40 bitrate=1850.5kbits/s speed=0.0124x elapsed=0:04:33.59    \nframe=  172 fps=0.6 q=37.0 size=     768KiB time=00:00:03.40 bitrate=1850.5kbits/s speed=0.0124x elapsed=0:04:34.14    \nframe=  173 fps=0.6 q=30.3 size=     768KiB time=00:00:03.42 bitrate=1839.7kbits/s speed=0.0124x elapsed=0:04:34.69    \nframe=  173 fps=0.6 q=30.3 size=     768KiB time=00:00:03.42 bitrate=1839.7kbits/s speed=0.0124x elapsed=0:04:35.28    \nframe=  173 fps=0.6 q=30.3 size=     768KiB time=00:00:03.42 bitrate=1839.7kbits/s speed=0.0124x elapsed=0:04:35.84    \nframe=  173 fps=0.6 q=30.3 size=     768KiB time=00:00:03.42 bitrate=1839.7kbits/s speed=0.0124x elapsed=0:04:36.40    \nframe=  173 fps=0.6 q=30.3 size=     768KiB time=00:00:03.42 bitrate=1839.7kbits/s speed=0.0123x elapsed=0:04:36.93    \nframe=  173 fps=0.6 q=30.3 size=     768KiB time=00:00:03.42 bitrate=1839.7kbits/s speed=0.0123x elapsed=0:04:37.51    \nframe=  173 fps=0.6 q=30.3 size=     768KiB time=00:00:03.42 bitrate=1839.7kbits/s speed=0.0123x elapsed=0:04:38.07    \nframe=  174 fps=0.6 q=36.4 size=     768KiB time=00:00:03.44 bitrate=1829.0kbits/s speed=0.0123x elapsed=0:04:38.59    \nframe=  174 fps=0.6 q=36.4 size=     768KiB time=00:00:03.44 bitrate=1829.0kbits/s speed=0.0123x elapsed=0:04:39.11    \nframe=  174 fps=0.6 q=36.4 size=     768KiB time=00:00:03.44 bitrate=1829.0kbits/s speed=0.0123x elapsed=0:04:39.62    \nframe=  174 fps=0.6 q=36.4 size=     768KiB time=00:00:03.44 bitrate=1829.0kbits/s speed=0.0123x elapsed=0:04:40.17    \nframe=  175 fps=0.6 q=38.0 size=     768KiB time=00:00:03.46 bitrate=1818.4kbits/s speed=0.0123x elapsed=0:04:40.69    \nframe=  175 fps=0.6 q=38.0 size=     768KiB time=00:00:03.46 bitrate=1818.4kbits/s speed=0.0123x elapsed=0:04:41.25    \nframe=  176 fps=0.6 q=38.0 size=     768KiB time=00:00:03.48 bitrate=1808.0kbits/s speed=0.0123x elapsed=0:04:41.78    \nframe=  176 fps=0.6 q=38.0 size=     768KiB time=00:00:03.48 bitrate=1808.0kbits/s speed=0.0123x elapsed=0:04:42.34    \nframe=  176 fps=0.6 q=38.0 size=     768KiB time=00:00:03.48 bitrate=1808.0kbits/s speed=0.0123x elapsed=0:04:42.88    \nframe=  178 fps=0.6 q=35.5 size=    1024KiB time=00:00:03.52 bitrate=2383.2kbits/s speed=0.0124x elapsed=0:04:43.43    \nframe=  178 fps=0.6 q=35.5 size=    1024KiB time=00:00:03.52 bitrate=2383.2kbits/s speed=0.0124x elapsed=0:04:43.97    \nframe=  179 fps=0.6 q=38.0 size=    1024KiB time=00:00:03.54 bitrate=2369.8kbits/s speed=0.0124x elapsed=0:04:44.49    \nframe=  180 fps=0.6 q=38.0 size=    1024KiB time=00:00:03.56 bitrate=2356.4kbits/s speed=0.0125x elapsed=0:04:45.04    \nframe=  180 fps=0.6 q=38.0 size=    1024KiB time=00:00:03.56 bitrate=2356.4kbits/s speed=0.0125x elapsed=0:04:45.58    \nframe=  181 fps=0.6 q=38.0 size=    1024KiB time=00:00:03.58 bitrate=2343.3kbits/s speed=0.0125x elapsed=0:04:46.12    \nframe=  181 fps=0.6 q=38.0 size=    1024KiB time=00:00:03.58 bitrate=2343.3kbits/s speed=0.0125x elapsed=0:04:46.66    \nframe=  182 fps=0.6 q=30.4 size=    1024KiB time=00:00:03.60 bitrate=2330.3kbits/s speed=0.0125x elapsed=0:04:47.19    \nframe=  183 fps=0.6 q=36.8 size=    1024KiB time=00:00:03.62 bitrate=2317.4kbits/s speed=0.0126x elapsed=0:04:47.73    \nframe=  183 fps=0.6 q=36.8 size=    1024KiB time=00:00:03.62 bitrate=2317.4kbits/s speed=0.0126x elapsed=0:04:48.27    \nframe=  183 fps=0.6 q=36.8 size=    1024KiB time=00:00:03.62 bitrate=2317.4kbits/s speed=0.0125x elapsed=0:04:48.79    \nframe=  184 fps=0.6 q=38.0 size=    1024KiB time=00:00:03.64 bitrate=2304.7kbits/s speed=0.0126x elapsed=0:04:49.31    \nframe=  184 fps=0.6 q=38.0 size=    1024KiB time=00:00:03.64 bitrate=2304.7kbits/s speed=0.0126x elapsed=0:04:49.83    \nframe=  184 fps=0.6 q=38.0 size=    1024KiB time=00:00:03.64 bitrate=2304.7kbits/s speed=0.0125x elapsed=0:04:50.37    \nframe=  185 fps=0.6 q=38.0 size=    1024KiB time=00:00:03.66 bitrate=2292.1kbits/s speed=0.0126x elapsed=0:04:50.89    \nframe=  185 fps=0.6 q=38.0 size=    1024KiB time=00:00:03.66 bitrate=2292.1kbits/s speed=0.0126x elapsed=0:04:51.41    \nframe=  185 fps=0.6 q=38.0 size=    1024KiB time=00:00:03.66 bitrate=2292.1kbits/s speed=0.0125x elapsed=0:04:52.01    \nframe=  185 fps=0.6 q=38.0 size=    1024KiB time=00:00:03.66 bitrate=2292.1kbits/s speed=0.0125x elapsed=0:04:52.63    \nframe=  185 fps=0.6 q=38.0 size=    1024KiB time=00:00:03.66 bitrate=2292.1kbits/s speed=0.0125x elapsed=0:04:53.21    \nframe=  186 fps=0.6 q=31.1 size=    1024KiB time=00:00:03.68 bitrate=2279.6kbits/s speed=0.0125x elapsed=0:04:53.78    \nframe=  186 fps=0.6 q=31.1 size=    1024KiB time=00:00:03.68 bitrate=2279.6kbits/s speed=0.0125x elapsed=0:04:54.36    \nframe=  186 fps=0.6 q=31.1 size=    1024KiB time=00:00:03.68 bitrate=2279.6kbits/s speed=0.0125x elapsed=0:04:54.92    \nframe=  187 fps=0.6 q=36.6 size=    1024KiB time=00:00:03.70 bitrate=2267.3kbits/s speed=0.0125x elapsed=0:04:55.49    \nframe=  188 fps=0.6 q=39.0 size=    1024KiB time=00:00:03.72 bitrate=2255.1kbits/s speed=0.0126x elapsed=0:04:56.01    \nframe=  189 fps=0.6 q=38.0 size=    1024KiB time=00:00:03.74 bitrate=2243.0kbits/s speed=0.0126x elapsed=0:04:56.52    \nframe=  190 fps=0.6 q=38.9 size=    1024KiB time=00:00:03.76 bitrate=2231.1kbits/s speed=0.0127x elapsed=0:04:57.05    \nframe=  190 fps=0.6 q=38.9 size=    1024KiB time=00:00:03.76 bitrate=2231.1kbits/s speed=0.0126x elapsed=0:04:57.57    \nframe=  190 fps=0.6 q=38.9 size=    1024KiB time=00:00:03.76 bitrate=2231.1kbits/s speed=0.0126x elapsed=0:04:58.10    \nframe=  191 fps=0.6 q=31.0 size=    1024KiB time=00:00:03.78 bitrate=2219.3kbits/s speed=0.0127x elapsed=0:04:58.61    \nframe=  192 fps=0.6 q=37.1 size=    1024KiB time=00:00:03.80 bitrate=2207.6kbits/s speed=0.0127x elapsed=0:04:59.14    \nframe=  193 fps=0.6 q=39.0 size=    1024KiB time=00:00:03.82 bitrate=2196.1kbits/s speed=0.0127x elapsed=0:04:59.67    \nframe=  193 fps=0.6 q=39.0 size=    1024KiB time=00:00:03.82 bitrate=2196.1kbits/s speed=0.0127x elapsed=0:05:00.22    \nframe=  194 fps=0.6 q=38.1 size=    1024KiB time=00:00:03.84 bitrate=2184.6kbits/s speed=0.0128x elapsed=0:05:00.73    \nframe=  194 fps=0.6 q=38.1 size=    1024KiB time=00:00:03.84 bitrate=2184.6kbits/s speed=0.0127x elapsed=0:05:01.25    \nframe=  195 fps=0.6 q=38.0 size=    1024KiB time=00:00:03.86 bitrate=2173.3kbits/s speed=0.0128x elapsed=0:05:01.76    \nframe=  196 fps=0.6 q=31.1 size=    1024KiB time=00:00:03.88 bitrate=2162.1kbits/s speed=0.0128x elapsed=0:05:02.28    \nframe=  199 fps=0.7 q=39.0 size=    1024KiB time=00:00:03.92 bitrate=2140.0kbits/s speed=0.0129x elapsed=0:05:02.82    \nframe=  200 fps=0.7 q=39.0 size=    1024KiB time=00:00:03.96 bitrate=2118.4kbits/s speed=0.0131x elapsed=0:05:03.34    \nframe=  200 fps=0.7 q=39.0 size=    1024KiB time=00:00:03.96 bitrate=2118.4kbits/s speed=0.013x elapsed=0:05:03.85    \nframe=  201 fps=0.7 q=32.7 size=    1024KiB time=00:00:03.98 bitrate=2107.8kbits/s speed=0.0131x elapsed=0:05:04.37    \nframe=  201 fps=0.7 q=32.7 size=    1024KiB time=00:00:03.98 bitrate=2107.8kbits/s speed=0.0131x elapsed=0:05:04.92    \nframe=  202 fps=0.7 q=38.9 size=    1024KiB time=00:00:04.00 bitrate=2097.2kbits/s speed=0.0131x elapsed=0:05:05.48    \nframe=  202 fps=0.7 q=38.9 size=    1024KiB time=00:00:04.00 bitrate=2097.2kbits/s speed=0.0131x elapsed=0:05:06.00    \nframe=  203 fps=0.7 q=40.0 size=    1024KiB time=00:00:04.02 bitrate=2086.8kbits/s speed=0.0131x elapsed=0:05:06.54    \nframe=  203 fps=0.7 q=40.0 size=    1024KiB time=00:00:04.02 bitrate=2086.8kbits/s speed=0.0131x elapsed=0:05:07.09    \nframe=  204 fps=0.7 q=41.0 size=    1024KiB time=00:00:04.04 bitrate=2076.5kbits/s speed=0.0131x elapsed=0:05:07.62    \nframe=  204 fps=0.7 q=41.0 size=    1024KiB time=00:00:04.04 bitrate=2076.5kbits/s speed=0.0131x elapsed=0:05:08.18    \nframe=  204 fps=0.7 q=41.0 size=    1024KiB time=00:00:04.04 bitrate=2076.5kbits/s speed=0.0131x elapsed=0:05:08.74    \nframe=  204 fps=0.7 q=41.0 size=    1024KiB time=00:00:04.04 bitrate=2076.5kbits/s speed=0.0131x elapsed=0:05:09.29    \nframe=  205 fps=0.7 q=32.8 size=    1024KiB time=00:00:04.06 bitrate=2066.2kbits/s speed=0.0131x elapsed=0:05:09.85    \nframe=  205 fps=0.7 q=32.8 size=    1024KiB time=00:00:04.06 bitrate=2066.2kbits/s speed=0.0131x elapsed=0:05:10.41    \nframe=  206 fps=0.7 q=39.8 size=    1024KiB time=00:00:04.08 bitrate=2056.1kbits/s speed=0.0131x elapsed=0:05:10.96    \nframe=  207 fps=0.7 q=41.0 size=    1024KiB time=00:00:04.10 bitrate=2046.1kbits/s speed=0.0132x elapsed=0:05:11.51    \nframe=  207 fps=0.7 q=41.0 size=    1024KiB time=00:00:04.10 bitrate=2046.1kbits/s speed=0.0131x elapsed=0:05:12.07    \nframe=  208 fps=0.7 q=41.0 size=    1024KiB time=00:00:04.12 bitrate=2036.2kbits/s speed=0.0132x elapsed=0:05:12.63    \nframe=  209 fps=0.7 q=41.0 size=    1024KiB time=00:00:04.14 bitrate=2026.3kbits/s speed=0.0132x elapsed=0:05:13.18    \nframe=  209 fps=0.7 q=41.0 size=    1024KiB time=00:00:04.14 bitrate=2026.3kbits/s speed=0.0132x elapsed=0:05:13.74    \nframe=  209 fps=0.7 q=41.0 size=    1024KiB time=00:00:04.14 bitrate=2026.3kbits/s speed=0.0132x elapsed=0:05:14.26    \nframe=  210 fps=0.7 q=33.2 size=    1024KiB time=00:00:04.16 bitrate=2016.6kbits/s speed=0.0132x elapsed=0:05:14.82    \nframe=  210 fps=0.7 q=33.2 size=    1024KiB time=00:00:04.16 bitrate=2016.6kbits/s speed=0.0132x elapsed=0:05:15.40    \nframe=  211 fps=0.7 q=41.0 size=    1024KiB time=00:00:04.18 bitrate=2006.9kbits/s speed=0.0132x elapsed=0:05:15.93    \nframe=  211 fps=0.7 q=41.0 size=    1024KiB time=00:00:04.18 bitrate=2006.9kbits/s speed=0.0132x elapsed=0:05:16.45    \nframe=  211 fps=0.7 q=41.0 size=    1024KiB time=00:00:04.18 bitrate=2006.9kbits/s speed=0.0132x elapsed=0:05:16.97    \nframe=  213 fps=0.7 q=42.0 size=    1024KiB time=00:00:04.22 bitrate=1987.9kbits/s speed=0.0133x elapsed=0:05:17.54    \nframe=  213 fps=0.7 q=42.0 size=    1024KiB time=00:00:04.22 bitrate=1987.9kbits/s speed=0.0133x elapsed=0:05:18.06    \nframe=  213 fps=0.7 q=42.0 size=    1024KiB time=00:00:04.22 bitrate=1987.9kbits/s speed=0.0132x elapsed=0:05:18.62    \nframe=  214 fps=0.7 q=42.0 size=    1024KiB time=00:00:04.24 bitrate=1978.5kbits/s speed=0.0133x elapsed=0:05:19.15    \nframe=  214 fps=0.7 q=42.0 size=    1024KiB time=00:00:04.24 bitrate=1978.5kbits/s speed=0.0133x elapsed=0:05:19.68    \nframe=  214 fps=0.7 q=42.0 size=    1024KiB time=00:00:04.24 bitrate=1978.5kbits/s speed=0.0132x elapsed=0:05:20.20    \nframe=  214 fps=0.7 q=42.0 size=    1024KiB time=00:00:04.24 bitrate=1978.5kbits/s speed=0.0132x elapsed=0:05:20.74    \nframe=  214 fps=0.7 q=42.0 size=    1024KiB time=00:00:04.24 bitrate=1978.5kbits/s speed=0.0132x elapsed=0:05:21.33    \nframe=  215 fps=0.7 q=32.8 size=    1024KiB time=00:00:04.26 bitrate=1969.2kbits/s speed=0.0132x elapsed=0:05:21.91    \nframe=  216 fps=0.7 q=40.0 size=    1280KiB time=00:00:04.28 bitrate=2450.0kbits/s speed=0.0133x elapsed=0:05:22.46    \nframe=  217 fps=0.7 q=41.0 size=    1280KiB time=00:00:04.30 bitrate=2438.6kbits/s speed=0.0133x elapsed=0:05:23.02    \nframe=  218 fps=0.7 q=41.0 size=    1280KiB time=00:00:04.32 bitrate=2427.3kbits/s speed=0.0134x elapsed=0:05:23.53    \nframe=  218 fps=0.7 q=41.0 size=    1280KiB time=00:00:04.32 bitrate=2427.3kbits/s speed=0.0133x elapsed=0:05:24.06    \nframe=  219 fps=0.7 q=41.0 size=    1280KiB time=00:00:04.34 bitrate=2416.2kbits/s speed=0.0134x elapsed=0:05:24.64    \nframe=  219 fps=0.7 q=41.0 size=    1280KiB time=00:00:04.34 bitrate=2416.2kbits/s speed=0.0133x elapsed=0:05:25.16    \nframe=  219 fps=0.7 q=41.0 size=    1280KiB time=00:00:04.34 bitrate=2416.2kbits/s speed=0.0133x elapsed=0:05:25.73    \nframe=  220 fps=0.7 q=33.0 size=    1280KiB time=00:00:04.36 bitrate=2405.1kbits/s speed=0.0134x elapsed=0:05:26.27    \nframe=  221 fps=0.7 q=40.0 size=    1280KiB time=00:00:04.38 bitrate=2394.1kbits/s speed=0.0134x elapsed=0:05:26.79    \nframe=  221 fps=0.7 q=40.0 size=    1280KiB time=00:00:04.38 bitrate=2394.1kbits/s speed=0.0134x elapsed=0:05:27.31    \nframe=  222 fps=0.7 q=41.0 size=    1280KiB time=00:00:04.40 bitrate=2383.2kbits/s speed=0.0134x elapsed=0:05:27.91    \nframe=  223 fps=0.7 q=39.0 size=    1280KiB time=00:00:04.42 bitrate=2372.4kbits/s speed=0.0135x elapsed=0:05:28.49    \nframe=  223 fps=0.7 q=39.0 size=    1280KiB time=00:00:04.42 bitrate=2372.4kbits/s speed=0.0134x elapsed=0:05:29.07    \nframe=  223 fps=0.7 q=39.0 size=    1280KiB time=00:00:04.42 bitrate=2372.4kbits/s speed=0.0134x elapsed=0:05:29.59    \nframe=  223 fps=0.7 q=39.0 size=    1280KiB time=00:00:04.42 bitrate=2372.4kbits/s speed=0.0134x elapsed=0:05:30.11    \nframe=  223 fps=0.7 q=39.0 size=    1280KiB time=00:00:04.42 bitrate=2372.4kbits/s speed=0.0134x elapsed=0:05:30.68    \nframe=  223 fps=0.7 q=39.0 size=    1280KiB time=00:00:04.42 bitrate=2372.4kbits/s speed=0.0133x elapsed=0:05:31.25    \nframe=  223 fps=0.7 q=39.0 size=    1280KiB time=00:00:04.42 bitrate=2372.4kbits/s speed=0.0133x elapsed=0:05:31.76    \nframe=  224 fps=0.7 q=31.7 size=    1280KiB time=00:00:04.44 bitrate=2361.7kbits/s speed=0.0134x elapsed=0:05:32.34    \nframe=  224 fps=0.7 q=31.7 size=    1280KiB time=00:00:04.44 bitrate=2361.7kbits/s speed=0.0133x elapsed=0:05:32.87    \nframe=  224 fps=0.7 q=31.7 size=    1280KiB time=00:00:04.44 bitrate=2361.7kbits/s speed=0.0133x elapsed=0:05:33.41    \nframe=  224 fps=0.7 q=31.7 size=    1280KiB time=00:00:04.44 bitrate=2361.7kbits/s speed=0.0133x elapsed=0:05:33.93    \nframe=  226 fps=0.7 q=39.0 size=    1280KiB time=00:00:04.48 bitrate=2340.7kbits/s speed=0.0134x elapsed=0:05:34.45    \nframe=  226 fps=0.7 q=39.0 size=    1280KiB time=00:00:04.48 bitrate=2340.7kbits/s speed=0.0134x elapsed=0:05:34.97    \nframe=  226 fps=0.7 q=39.0 size=    1280KiB time=00:00:04.48 bitrate=2340.7kbits/s speed=0.0134x elapsed=0:05:35.50    \nframe=  227 fps=0.7 q=40.0 size=    1280KiB time=00:00:04.50 bitrate=2330.2kbits/s speed=0.0134x elapsed=0:05:36.02    \nframe=  227 fps=0.7 q=40.0 size=    1280KiB time=00:00:04.50 bitrate=2330.2kbits/s speed=0.0134x elapsed=0:05:36.57    \nframe=  227 fps=0.7 q=40.0 size=    1280KiB time=00:00:04.50 bitrate=2330.2kbits/s speed=0.0133x elapsed=0:05:37.10    \nframe=  227 fps=0.7 q=40.0 size=    1280KiB time=00:00:04.50 bitrate=2330.2kbits/s speed=0.0133x elapsed=0:05:37.65    \nframe=  228 fps=0.7 q=31.8 size=    1280KiB time=00:00:04.52 bitrate=2319.9kbits/s speed=0.0134x elapsed=0:05:38.19    \nframe=  228 fps=0.7 q=31.8 size=    1280KiB time=00:00:04.52 bitrate=2319.9kbits/s speed=0.0133x elapsed=0:05:38.73    \nframe=  230 fps=0.7 q=40.0 size=    1280KiB time=00:00:04.56 bitrate=2299.6kbits/s speed=0.0134x elapsed=0:05:39.25    \nframe=  230 fps=0.7 q=40.0 size=    1280KiB time=00:00:04.56 bitrate=2299.6kbits/s speed=0.0134x elapsed=0:05:39.77    \nframe=  230 fps=0.7 q=40.0 size=    1280KiB time=00:00:04.56 bitrate=2299.6kbits/s speed=0.0134x elapsed=0:05:40.34    \nframe=  230 fps=0.7 q=40.0 size=    1280KiB time=00:00:04.56 bitrate=2299.6kbits/s speed=0.0134x elapsed=0:05:40.90    \nframe=  231 fps=0.7 q=39.0 size=    1280KiB time=00:00:04.58 bitrate=2289.5kbits/s speed=0.0134x elapsed=0:05:41.47    \nframe=  231 fps=0.7 q=39.0 size=    1280KiB time=00:00:04.58 bitrate=2289.5kbits/s speed=0.0134x elapsed=0:05:42.03    \nframe=  231 fps=0.7 q=39.0 size=    1280KiB time=00:00:04.58 bitrate=2289.5kbits/s speed=0.0134x elapsed=0:05:42.59    \nframe=  231 fps=0.7 q=39.0 size=    1280KiB time=00:00:04.58 bitrate=2289.5kbits/s speed=0.0133x elapsed=0:05:43.14    \nframe=  231 fps=0.7 q=39.0 size=    1280KiB time=00:00:04.58 bitrate=2289.5kbits/s speed=0.0133x elapsed=0:05:43.67    \nframe=  232 fps=0.7 q=32.0 size=    1280KiB time=00:00:04.60 bitrate=2279.6kbits/s speed=0.0134x elapsed=0:05:44.22    \nframe=  233 fps=0.7 q=37.3 size=    1280KiB time=00:00:04.62 bitrate=2269.7kbits/s speed=0.0134x elapsed=0:05:44.78    \nframe=  234 fps=0.7 q=38.9 size=    1280KiB time=00:00:04.64 bitrate=2259.9kbits/s speed=0.0134x elapsed=0:05:45.31    \nframe=  234 fps=0.7 q=38.9 size=    1280KiB time=00:00:04.64 bitrate=2259.9kbits/s speed=0.0134x elapsed=0:05:45.87    \nframe=  235 fps=0.7 q=40.0 size=    1280KiB time=00:00:04.66 bitrate=2250.2kbits/s speed=0.0135x elapsed=0:05:46.42    \nframe=  235 fps=0.7 q=40.0 size=    1280KiB time=00:00:04.66 bitrate=2250.2kbits/s speed=0.0134x elapsed=0:05:46.94    \nframe=  235 fps=0.7 q=40.0 size=    1280KiB time=00:00:04.66 bitrate=2250.2kbits/s speed=0.0134x elapsed=0:05:47.47    \nframe=  236 fps=0.7 q=40.0 size=    1280KiB time=00:00:04.68 bitrate=2240.6kbits/s speed=0.0134x elapsed=0:05:48.01    \nframe=  236 fps=0.7 q=40.0 size=    1280KiB time=00:00:04.68 bitrate=2240.6kbits/s speed=0.0134x elapsed=0:05:48.53    \nframe=  237 fps=0.7 q=32.1 size=    1280KiB time=00:00:04.70 bitrate=2231.1kbits/s speed=0.0135x elapsed=0:05:49.05    \nframe=  238 fps=0.7 q=37.5 size=    1280KiB time=00:00:04.72 bitrate=2221.6kbits/s speed=0.0135x elapsed=0:05:49.57    \nframe=  239 fps=0.7 q=39.0 size=    1280KiB time=00:00:04.74 bitrate=2212.3kbits/s speed=0.0135x elapsed=0:05:50.09    \nframe=  239 fps=0.7 q=39.0 size=    1280KiB time=00:00:04.74 bitrate=2212.3kbits/s speed=0.0135x elapsed=0:05:50.60    \nframe=  240 fps=0.7 q=38.0 size=    1280KiB time=00:00:04.76 bitrate=2203.0kbits/s speed=0.0136x elapsed=0:05:51.12    \nframe=  240 fps=0.7 q=38.0 size=    1280KiB time=00:00:04.76 bitrate=2203.0kbits/s speed=0.0135x elapsed=0:05:51.64    \nframe=  241 fps=0.7 q=31.8 size=    1280KiB time=00:00:04.78 bitrate=2193.7kbits/s speed=0.0136x elapsed=0:05:52.15    \nframe=  241 fps=0.7 q=31.8 size=    1280KiB time=00:00:04.78 bitrate=2193.7kbits/s speed=0.0136x elapsed=0:05:52.69    \nframe=  242 fps=0.7 q=37.1 size=    1280KiB time=00:00:04.80 bitrate=2184.6kbits/s speed=0.0136x elapsed=0:05:53.25    \nframe=  242 fps=0.7 q=37.1 size=    1280KiB time=00:00:04.80 bitrate=2184.6kbits/s speed=0.0136x elapsed=0:05:53.77    \nframe=  242 fps=0.7 q=37.1 size=    1280KiB time=00:00:04.80 bitrate=2184.6kbits/s speed=0.0135x elapsed=0:05:54.33    \nframe=  244 fps=0.7 q=37.0 size=    1280KiB time=00:00:04.84 bitrate=2166.6kbits/s speed=0.0136x elapsed=0:05:54.88    \nframe=  244 fps=0.7 q=37.0 size=    1280KiB time=00:00:04.84 bitrate=2166.6kbits/s speed=0.0136x elapsed=0:05:55.40    \nframe=  245 fps=0.7 q=37.0 size=    1280KiB time=00:00:04.86 bitrate=2157.6kbits/s speed=0.0137x elapsed=0:05:55.94    \nframe=  246 fps=0.7 q=33.4 size=    1280KiB time=00:00:04.88 bitrate=2148.8kbits/s speed=0.0137x elapsed=0:05:56.48    \nframe=  247 fps=0.7 q=32.9 size=    1280KiB time=00:00:04.90 bitrate=2140.0kbits/s speed=0.0137x elapsed=0:05:57.02    \nframe=  247 fps=0.7 q=32.9 size=    1280KiB time=00:00:04.90 bitrate=2140.0kbits/s speed=0.0137x elapsed=0:05:57.55    \n[mp4 @ 0000021e06b5aa40] Starting second pass: moving the moov atom to the beginning of the file\n[out#0/mp4 @ 0000021e06be7d80] video:1479KiB audio:0KiB subtitle:0KiB other streams:0KiB global headers:2KiB muxing overhead: 0.417499%\nframe=  250 fps=0.7 q=35.9 Lsize=    1485KiB time=00:00:04.96 bitrate=2453.3kbits/s speed=0.0139x elapsed=0:05:57.64    \nx265 [info]: frame I:      1, Avg QP:39.13  kb/s: 27148.40\nx265 [info]: frame P:     53, Avg QP:32.80  kb/s: 9924.01 \nx265 [info]: frame B:    196, Avg QP:39.64  kb/s: 267.21  \nx265 [info]: Weighted P-Frames: Y:0.0% UV:0.0%\n\nencoded 250 frames in 356.67s (0.70 fps), 2421.97 kb/s, Avg QP:38.19\n",
  "seconds": 358.3689317703247,
  "probe_out": {}
}